%TF.GenerationSoftware,KiCad,Pcbnew,(5.1.8)-1*%
%TF.CreationDate,2022-01-13T18:29:01+02:00*%
%TF.ProjectId,Single_transistor_AMP,53696e67-6c65-45f7-9472-616e73697374,rev?*%
%TF.SameCoordinates,Original*%
%TF.FileFunction,Legend,Top*%
%TF.FilePolarity,Positive*%
%FSLAX46Y46*%
G04 Gerber Fmt 4.6, Leading zero omitted, Abs format (unit mm)*
G04 Created by KiCad (PCBNEW (5.1.8)-1) date 2022-01-13 18:29:01*
%MOMM*%
%LPD*%
G01*
G04 APERTURE LIST*
%ADD10C,0.120000*%
%ADD11C,0.150000*%
G04 APERTURE END LIST*
D10*
%TO.C,C1*%
X112856000Y-68596000D02*
G75*
G03*
X112856000Y-68596000I-2620000J0D01*
G01*
%TO.C,C2*%
X124540000Y-68596000D02*
G75*
G03*
X124540000Y-68596000I-2620000J0D01*
G01*
%TO.C,J1*%
X106884000Y-59834000D02*
X94284000Y-59834000D01*
X94284000Y-59834000D02*
X94284000Y-70184000D01*
X94284000Y-70184000D02*
X95234000Y-70184000D01*
X95234000Y-70184000D02*
X94984000Y-70684000D01*
X94984000Y-70684000D02*
X96884000Y-70684000D01*
X96884000Y-70684000D02*
X96934000Y-70684000D01*
X96934000Y-70684000D02*
X96684000Y-70184000D01*
X96684000Y-70184000D02*
X102084000Y-70184000D01*
X102084000Y-70184000D02*
X101784000Y-70684000D01*
X101784000Y-70684000D02*
X106884000Y-70684000D01*
X106884000Y-70684000D02*
X106884000Y-59834000D01*
%TO.C,J2*%
X125272000Y-59763001D02*
X125272000Y-70613001D01*
X130372000Y-59763001D02*
X125272000Y-59763001D01*
X130072000Y-60263001D02*
X130372000Y-59763001D01*
X135472000Y-60263001D02*
X130072000Y-60263001D01*
X135222000Y-59763001D02*
X135472000Y-60263001D01*
X135272000Y-59763001D02*
X135222000Y-59763001D01*
X137172000Y-59763001D02*
X135272000Y-59763001D01*
X136922000Y-60263001D02*
X137172000Y-59763001D01*
X137872000Y-60263001D02*
X136922000Y-60263001D01*
X137872000Y-70613001D02*
X137872000Y-60263001D01*
X125272000Y-70613001D02*
X137872000Y-70613001D01*
%TO.C,Q1*%
X118182000Y-70634000D02*
X118182000Y-67034000D01*
X118170478Y-70672478D02*
G75*
G02*
X113732000Y-68834000I-1838478J1838478D01*
G01*
X118170478Y-66995522D02*
G75*
G03*
X113732000Y-68834000I-1838478J-1838478D01*
G01*
%TO.C,R1*%
X107112000Y-74168000D02*
X108062000Y-74168000D01*
X112852000Y-74168000D02*
X111902000Y-74168000D01*
X108062000Y-75088000D02*
X111902000Y-75088000D01*
X108062000Y-73248000D02*
X108062000Y-75088000D01*
X111902000Y-73248000D02*
X108062000Y-73248000D01*
X111902000Y-75088000D02*
X111902000Y-73248000D01*
%TO.C,R2*%
X110840000Y-62626000D02*
X112680000Y-62626000D01*
X112680000Y-62626000D02*
X112680000Y-58786000D01*
X112680000Y-58786000D02*
X110840000Y-58786000D01*
X110840000Y-58786000D02*
X110840000Y-62626000D01*
X111760000Y-63576000D02*
X111760000Y-62626000D01*
X111760000Y-57836000D02*
X111760000Y-58786000D01*
%TO.C,R3*%
X119238000Y-73248000D02*
X119238000Y-75088000D01*
X119238000Y-75088000D02*
X123078000Y-75088000D01*
X123078000Y-75088000D02*
X123078000Y-73248000D01*
X123078000Y-73248000D02*
X119238000Y-73248000D01*
X118288000Y-74168000D02*
X119238000Y-74168000D01*
X124028000Y-74168000D02*
X123078000Y-74168000D01*
%TO.C,R4*%
X120396000Y-57836000D02*
X120396000Y-58786000D01*
X120396000Y-63576000D02*
X120396000Y-62626000D01*
X119476000Y-58786000D02*
X119476000Y-62626000D01*
X121316000Y-58786000D02*
X119476000Y-58786000D01*
X121316000Y-62626000D02*
X121316000Y-58786000D01*
X119476000Y-62626000D02*
X121316000Y-62626000D01*
%TO.C,J3*%
X104052000Y-77724000D02*
G75*
G03*
X104052000Y-77724000I-5500000J0D01*
G01*
%TO.C,J4*%
X139612000Y-77724000D02*
G75*
G03*
X139612000Y-77724000I-5500000J0D01*
G01*
%TO.C,C1*%
D11*
X108053142Y-71286666D02*
X108100761Y-71334285D01*
X108148380Y-71477142D01*
X108148380Y-71572380D01*
X108100761Y-71715238D01*
X108005523Y-71810476D01*
X107910285Y-71858095D01*
X107719809Y-71905714D01*
X107576952Y-71905714D01*
X107386476Y-71858095D01*
X107291238Y-71810476D01*
X107196000Y-71715238D01*
X107148380Y-71572380D01*
X107148380Y-71477142D01*
X107196000Y-71334285D01*
X107243619Y-71286666D01*
X108148380Y-70334285D02*
X108148380Y-70905714D01*
X108148380Y-70620000D02*
X107148380Y-70620000D01*
X107291238Y-70715238D01*
X107386476Y-70810476D01*
X107434095Y-70905714D01*
%TO.C,C2*%
X124309142Y-71286666D02*
X124356761Y-71334285D01*
X124404380Y-71477142D01*
X124404380Y-71572380D01*
X124356761Y-71715238D01*
X124261523Y-71810476D01*
X124166285Y-71858095D01*
X123975809Y-71905714D01*
X123832952Y-71905714D01*
X123642476Y-71858095D01*
X123547238Y-71810476D01*
X123452000Y-71715238D01*
X123404380Y-71572380D01*
X123404380Y-71477142D01*
X123452000Y-71334285D01*
X123499619Y-71286666D01*
X123499619Y-70905714D02*
X123452000Y-70858095D01*
X123404380Y-70762857D01*
X123404380Y-70524761D01*
X123452000Y-70429523D01*
X123499619Y-70381904D01*
X123594857Y-70334285D01*
X123690095Y-70334285D01*
X123832952Y-70381904D01*
X124404380Y-70953333D01*
X124404380Y-70334285D01*
%TO.C,J1*%
X107656380Y-61293333D02*
X108370666Y-61293333D01*
X108513523Y-61340952D01*
X108608761Y-61436190D01*
X108656380Y-61579047D01*
X108656380Y-61674285D01*
X108656380Y-60293333D02*
X108656380Y-60864761D01*
X108656380Y-60579047D02*
X107656380Y-60579047D01*
X107799238Y-60674285D01*
X107894476Y-60769523D01*
X107942095Y-60864761D01*
%TO.C,J2*%
X123912380Y-63833333D02*
X124626666Y-63833333D01*
X124769523Y-63880952D01*
X124864761Y-63976190D01*
X124912380Y-64119047D01*
X124912380Y-64214285D01*
X124007619Y-63404761D02*
X123960000Y-63357142D01*
X123912380Y-63261904D01*
X123912380Y-63023809D01*
X123960000Y-62928571D01*
X124007619Y-62880952D01*
X124102857Y-62833333D01*
X124198095Y-62833333D01*
X124340952Y-62880952D01*
X124912380Y-63452380D01*
X124912380Y-62833333D01*
%TO.C,Q1*%
X114712761Y-72175619D02*
X114617523Y-72128000D01*
X114522285Y-72032761D01*
X114379428Y-71889904D01*
X114284190Y-71842285D01*
X114188952Y-71842285D01*
X114236571Y-72080380D02*
X114141333Y-72032761D01*
X114046095Y-71937523D01*
X113998476Y-71747047D01*
X113998476Y-71413714D01*
X114046095Y-71223238D01*
X114141333Y-71128000D01*
X114236571Y-71080380D01*
X114427047Y-71080380D01*
X114522285Y-71128000D01*
X114617523Y-71223238D01*
X114665142Y-71413714D01*
X114665142Y-71747047D01*
X114617523Y-71937523D01*
X114522285Y-72032761D01*
X114427047Y-72080380D01*
X114236571Y-72080380D01*
X115617523Y-72080380D02*
X115046095Y-72080380D01*
X115331809Y-72080380D02*
X115331809Y-71080380D01*
X115236571Y-71223238D01*
X115141333Y-71318476D01*
X115046095Y-71366095D01*
%TO.C,R1*%
X109815333Y-76540380D02*
X109482000Y-76064190D01*
X109243904Y-76540380D02*
X109243904Y-75540380D01*
X109624857Y-75540380D01*
X109720095Y-75588000D01*
X109767714Y-75635619D01*
X109815333Y-75730857D01*
X109815333Y-75873714D01*
X109767714Y-75968952D01*
X109720095Y-76016571D01*
X109624857Y-76064190D01*
X109243904Y-76064190D01*
X110767714Y-76540380D02*
X110196285Y-76540380D01*
X110482000Y-76540380D02*
X110482000Y-75540380D01*
X110386761Y-75683238D01*
X110291523Y-75778476D01*
X110196285Y-75826095D01*
%TO.C,R2*%
X114244380Y-63666666D02*
X113768190Y-64000000D01*
X114244380Y-64238095D02*
X113244380Y-64238095D01*
X113244380Y-63857142D01*
X113292000Y-63761904D01*
X113339619Y-63714285D01*
X113434857Y-63666666D01*
X113577714Y-63666666D01*
X113672952Y-63714285D01*
X113720571Y-63761904D01*
X113768190Y-63857142D01*
X113768190Y-64238095D01*
X113339619Y-63285714D02*
X113292000Y-63238095D01*
X113244380Y-63142857D01*
X113244380Y-62904761D01*
X113292000Y-62809523D01*
X113339619Y-62761904D01*
X113434857Y-62714285D01*
X113530095Y-62714285D01*
X113672952Y-62761904D01*
X114244380Y-63333333D01*
X114244380Y-62714285D01*
%TO.C,R3*%
X120991333Y-76652380D02*
X120658000Y-76176190D01*
X120419904Y-76652380D02*
X120419904Y-75652380D01*
X120800857Y-75652380D01*
X120896095Y-75700000D01*
X120943714Y-75747619D01*
X120991333Y-75842857D01*
X120991333Y-75985714D01*
X120943714Y-76080952D01*
X120896095Y-76128571D01*
X120800857Y-76176190D01*
X120419904Y-76176190D01*
X121324666Y-75652380D02*
X121943714Y-75652380D01*
X121610380Y-76033333D01*
X121753238Y-76033333D01*
X121848476Y-76080952D01*
X121896095Y-76128571D01*
X121943714Y-76223809D01*
X121943714Y-76461904D01*
X121896095Y-76557142D01*
X121848476Y-76604761D01*
X121753238Y-76652380D01*
X121467523Y-76652380D01*
X121372285Y-76604761D01*
X121324666Y-76557142D01*
%TO.C,R4*%
X119324380Y-61126666D02*
X118848190Y-61460000D01*
X119324380Y-61698095D02*
X118324380Y-61698095D01*
X118324380Y-61317142D01*
X118372000Y-61221904D01*
X118419619Y-61174285D01*
X118514857Y-61126666D01*
X118657714Y-61126666D01*
X118752952Y-61174285D01*
X118800571Y-61221904D01*
X118848190Y-61317142D01*
X118848190Y-61698095D01*
X118657714Y-60269523D02*
X119324380Y-60269523D01*
X118276761Y-60507619D02*
X118991047Y-60745714D01*
X118991047Y-60126666D01*
%TO.C,J3*%
X103298666Y-82256380D02*
X103298666Y-82970666D01*
X103251047Y-83113523D01*
X103155809Y-83208761D01*
X103012952Y-83256380D01*
X102917714Y-83256380D01*
X103679619Y-82256380D02*
X104298666Y-82256380D01*
X103965333Y-82637333D01*
X104108190Y-82637333D01*
X104203428Y-82684952D01*
X104251047Y-82732571D01*
X104298666Y-82827809D01*
X104298666Y-83065904D01*
X104251047Y-83161142D01*
X104203428Y-83208761D01*
X104108190Y-83256380D01*
X103822476Y-83256380D01*
X103727238Y-83208761D01*
X103679619Y-83161142D01*
%TO.C,J4*%
X129206666Y-82256380D02*
X129206666Y-82970666D01*
X129159047Y-83113523D01*
X129063809Y-83208761D01*
X128920952Y-83256380D01*
X128825714Y-83256380D01*
X130111428Y-82589714D02*
X130111428Y-83256380D01*
X129873333Y-82208761D02*
X129635238Y-82923047D01*
X130254285Y-82923047D01*
%TD*%
M02*
