%TF.GenerationSoftware,KiCad,Pcbnew,(5.1.8)-1*%
%TF.CreationDate,2022-01-13T18:29:01+02:00*%
%TF.ProjectId,Single_transistor_AMP,53696e67-6c65-45f7-9472-616e73697374,rev?*%
%TF.SameCoordinates,Original*%
%TF.FileFunction,Copper,L2,Bot*%
%TF.FilePolarity,Positive*%
%FSLAX46Y46*%
G04 Gerber Fmt 4.6, Leading zero omitted, Abs format (unit mm)*
G04 Created by KiCad (PCBNEW (5.1.8)-1) date 2022-01-13 18:29:01*
%MOMM*%
%LPD*%
G01*
G04 APERTURE LIST*
%TA.AperFunction,ComponentPad*%
%ADD10C,1.600000*%
%TD*%
%TA.AperFunction,ComponentPad*%
%ADD11R,3.960000X1.980000*%
%TD*%
%TA.AperFunction,ComponentPad*%
%ADD12O,3.960000X1.980000*%
%TD*%
%TA.AperFunction,ComponentPad*%
%ADD13O,1.500000X1.050000*%
%TD*%
%TA.AperFunction,ComponentPad*%
%ADD14R,1.500000X1.050000*%
%TD*%
%TA.AperFunction,ComponentPad*%
%ADD15O,1.400000X1.400000*%
%TD*%
%TA.AperFunction,ComponentPad*%
%ADD16C,1.400000*%
%TD*%
%TA.AperFunction,ComponentPad*%
%ADD17C,10.160000*%
%TD*%
%TA.AperFunction,Conductor*%
%ADD18C,0.254000*%
%TD*%
%TA.AperFunction,Conductor*%
%ADD19C,0.100000*%
%TD*%
G04 APERTURE END LIST*
D10*
%TO.P,C1,1*%
%TO.N,Net-(C1-Pad1)*%
X110236000Y-69596000D03*
%TO.P,C1,2*%
%TO.N,Net-(C1-Pad2)*%
X110236000Y-67596000D03*
%TD*%
%TO.P,C2,2*%
%TO.N,Net-(C2-Pad2)*%
X121920000Y-67596000D03*
%TO.P,C2,1*%
%TO.N,GNDREF*%
X121920000Y-69596000D03*
%TD*%
D11*
%TO.P,J1,1*%
%TO.N,GNDREF*%
X100584000Y-62484000D03*
D12*
%TO.P,J1,2*%
%TO.N,Net-(C1-Pad2)*%
X100584000Y-67484000D03*
%TD*%
%TO.P,J2,2*%
%TO.N,GNDREF*%
X131572000Y-62963001D03*
D11*
%TO.P,J2,1*%
%TO.N,Net-(J2-Pad1)*%
X131572000Y-67963001D03*
%TD*%
D13*
%TO.P,Q1,2*%
%TO.N,Net-(C1-Pad1)*%
X116332000Y-68834000D03*
%TO.P,Q1,3*%
%TO.N,Net-(C2-Pad2)*%
X116332000Y-67564000D03*
D14*
%TO.P,Q1,1*%
%TO.N,Net-(J2-Pad1)*%
X116332000Y-70104000D03*
%TD*%
D15*
%TO.P,R1,2*%
%TO.N,Net-(C1-Pad1)*%
X106172000Y-74168000D03*
D16*
%TO.P,R1,1*%
%TO.N,+9V*%
X113792000Y-74168000D03*
%TD*%
%TO.P,R2,1*%
%TO.N,Net-(C1-Pad1)*%
X111760000Y-64516000D03*
D15*
%TO.P,R2,2*%
%TO.N,GNDREF*%
X111760000Y-56896000D03*
%TD*%
D16*
%TO.P,R3,1*%
%TO.N,+9V*%
X117348000Y-74168000D03*
D15*
%TO.P,R3,2*%
%TO.N,Net-(J2-Pad1)*%
X124968000Y-74168000D03*
%TD*%
%TO.P,R4,2*%
%TO.N,GNDREF*%
X120396000Y-56896000D03*
D16*
%TO.P,R4,1*%
%TO.N,Net-(C2-Pad2)*%
X120396000Y-64516000D03*
%TD*%
D17*
%TO.P,J3,1*%
%TO.N,+9V*%
X98552000Y-77724000D03*
%TD*%
%TO.P,J4,1*%
%TO.N,GNDREF*%
X134112000Y-77724000D03*
%TD*%
D18*
%TO.N,GNDREF*%
X110693241Y-56093340D02*
X110557147Y-56316877D01*
X110467278Y-56562670D01*
X110589799Y-56769000D01*
X111633000Y-56769000D01*
X111633000Y-56749000D01*
X111887000Y-56749000D01*
X111887000Y-56769000D01*
X112930201Y-56769000D01*
X113052722Y-56562670D01*
X112962853Y-56316877D01*
X112826759Y-56093340D01*
X112770386Y-56032000D01*
X119385614Y-56032000D01*
X119329241Y-56093340D01*
X119193147Y-56316877D01*
X119103278Y-56562670D01*
X119225799Y-56769000D01*
X120269000Y-56769000D01*
X120269000Y-56749000D01*
X120523000Y-56749000D01*
X120523000Y-56769000D01*
X121566201Y-56769000D01*
X121688722Y-56562670D01*
X121598853Y-56316877D01*
X121462759Y-56093340D01*
X121406386Y-56032000D01*
X137635721Y-56032000D01*
X138131216Y-56080584D01*
X138576793Y-56215112D01*
X138987746Y-56433620D01*
X139348434Y-56727788D01*
X139645119Y-57086419D01*
X139866491Y-57495838D01*
X140004126Y-57940465D01*
X140056001Y-58434021D01*
X140056000Y-74708418D01*
X140056001Y-74708428D01*
X140056000Y-81247721D01*
X140007416Y-81743216D01*
X139872890Y-82188790D01*
X139654382Y-82599745D01*
X139360209Y-82960436D01*
X139001581Y-83257119D01*
X138592162Y-83478491D01*
X138147535Y-83616126D01*
X137653990Y-83668000D01*
X94520279Y-83668000D01*
X94024784Y-83619416D01*
X93579210Y-83484890D01*
X93168255Y-83266382D01*
X92807564Y-82972209D01*
X92510881Y-82613581D01*
X92289509Y-82204162D01*
X92151874Y-81759535D01*
X92100000Y-81265990D01*
X92100000Y-77161122D01*
X92837000Y-77161122D01*
X92837000Y-78286878D01*
X93056625Y-79391004D01*
X93487433Y-80431067D01*
X94112870Y-81367100D01*
X94908900Y-82163130D01*
X95844933Y-82788567D01*
X96884996Y-83219375D01*
X97989122Y-83439000D01*
X99114878Y-83439000D01*
X100219004Y-83219375D01*
X101259067Y-82788567D01*
X102195100Y-82163130D01*
X102597034Y-81761196D01*
X130254409Y-81761196D01*
X130840124Y-82443416D01*
X131823704Y-82991045D01*
X132895223Y-83336265D01*
X134013501Y-83465808D01*
X135135565Y-83374697D01*
X136218294Y-83066433D01*
X137220079Y-82552863D01*
X137383876Y-82443416D01*
X137969591Y-81761196D01*
X134112000Y-77903605D01*
X130254409Y-81761196D01*
X102597034Y-81761196D01*
X102991130Y-81367100D01*
X103616567Y-80431067D01*
X104047375Y-79391004D01*
X104267000Y-78286878D01*
X104267000Y-77625501D01*
X128370192Y-77625501D01*
X128461303Y-78747565D01*
X128769567Y-79830294D01*
X129283137Y-80832079D01*
X129392584Y-80995876D01*
X130074804Y-81581591D01*
X133932395Y-77724000D01*
X134291605Y-77724000D01*
X138149196Y-81581591D01*
X138831416Y-80995876D01*
X139379045Y-80012296D01*
X139724265Y-78940777D01*
X139853808Y-77822499D01*
X139762697Y-76700435D01*
X139454433Y-75617706D01*
X138940863Y-74615921D01*
X138831416Y-74452124D01*
X138149196Y-73866409D01*
X134291605Y-77724000D01*
X133932395Y-77724000D01*
X130074804Y-73866409D01*
X129392584Y-74452124D01*
X128844955Y-75435704D01*
X128499735Y-76507223D01*
X128370192Y-77625501D01*
X104267000Y-77625501D01*
X104267000Y-77161122D01*
X104047375Y-76056996D01*
X103616567Y-75016933D01*
X102991130Y-74080900D01*
X102946744Y-74036514D01*
X104837000Y-74036514D01*
X104837000Y-74299486D01*
X104888304Y-74557405D01*
X104988939Y-74800359D01*
X105135038Y-75019013D01*
X105320987Y-75204962D01*
X105539641Y-75351061D01*
X105782595Y-75451696D01*
X106040514Y-75503000D01*
X106303486Y-75503000D01*
X106561405Y-75451696D01*
X106804359Y-75351061D01*
X107023013Y-75204962D01*
X107208962Y-75019013D01*
X107355061Y-74800359D01*
X107455696Y-74557405D01*
X107507000Y-74299486D01*
X107507000Y-74036514D01*
X112457000Y-74036514D01*
X112457000Y-74299486D01*
X112508304Y-74557405D01*
X112608939Y-74800359D01*
X112755038Y-75019013D01*
X112940987Y-75204962D01*
X113159641Y-75351061D01*
X113402595Y-75451696D01*
X113660514Y-75503000D01*
X113923486Y-75503000D01*
X114181405Y-75451696D01*
X114424359Y-75351061D01*
X114643013Y-75204962D01*
X114828962Y-75019013D01*
X114975061Y-74800359D01*
X115075696Y-74557405D01*
X115127000Y-74299486D01*
X115127000Y-74036514D01*
X116013000Y-74036514D01*
X116013000Y-74299486D01*
X116064304Y-74557405D01*
X116164939Y-74800359D01*
X116311038Y-75019013D01*
X116496987Y-75204962D01*
X116715641Y-75351061D01*
X116958595Y-75451696D01*
X117216514Y-75503000D01*
X117479486Y-75503000D01*
X117737405Y-75451696D01*
X117980359Y-75351061D01*
X118199013Y-75204962D01*
X118384962Y-75019013D01*
X118531061Y-74800359D01*
X118631696Y-74557405D01*
X118683000Y-74299486D01*
X118683000Y-74036514D01*
X123633000Y-74036514D01*
X123633000Y-74299486D01*
X123684304Y-74557405D01*
X123784939Y-74800359D01*
X123931038Y-75019013D01*
X124116987Y-75204962D01*
X124335641Y-75351061D01*
X124578595Y-75451696D01*
X124836514Y-75503000D01*
X125099486Y-75503000D01*
X125357405Y-75451696D01*
X125600359Y-75351061D01*
X125819013Y-75204962D01*
X126004962Y-75019013D01*
X126151061Y-74800359D01*
X126251696Y-74557405D01*
X126303000Y-74299486D01*
X126303000Y-74036514D01*
X126251696Y-73778595D01*
X126213675Y-73686804D01*
X130254409Y-73686804D01*
X134112000Y-77544395D01*
X137969591Y-73686804D01*
X137383876Y-73004584D01*
X136400296Y-72456955D01*
X135328777Y-72111735D01*
X134210499Y-71982192D01*
X133088435Y-72073303D01*
X132005706Y-72381567D01*
X131003921Y-72895137D01*
X130840124Y-73004584D01*
X130254409Y-73686804D01*
X126213675Y-73686804D01*
X126151061Y-73535641D01*
X126004962Y-73316987D01*
X125819013Y-73131038D01*
X125600359Y-72984939D01*
X125357405Y-72884304D01*
X125099486Y-72833000D01*
X124836514Y-72833000D01*
X124578595Y-72884304D01*
X124335641Y-72984939D01*
X124116987Y-73131038D01*
X123931038Y-73316987D01*
X123784939Y-73535641D01*
X123684304Y-73778595D01*
X123633000Y-74036514D01*
X118683000Y-74036514D01*
X118631696Y-73778595D01*
X118531061Y-73535641D01*
X118384962Y-73316987D01*
X118199013Y-73131038D01*
X117980359Y-72984939D01*
X117737405Y-72884304D01*
X117479486Y-72833000D01*
X117216514Y-72833000D01*
X116958595Y-72884304D01*
X116715641Y-72984939D01*
X116496987Y-73131038D01*
X116311038Y-73316987D01*
X116164939Y-73535641D01*
X116064304Y-73778595D01*
X116013000Y-74036514D01*
X115127000Y-74036514D01*
X115075696Y-73778595D01*
X114975061Y-73535641D01*
X114828962Y-73316987D01*
X114643013Y-73131038D01*
X114424359Y-72984939D01*
X114181405Y-72884304D01*
X113923486Y-72833000D01*
X113660514Y-72833000D01*
X113402595Y-72884304D01*
X113159641Y-72984939D01*
X112940987Y-73131038D01*
X112755038Y-73316987D01*
X112608939Y-73535641D01*
X112508304Y-73778595D01*
X112457000Y-74036514D01*
X107507000Y-74036514D01*
X107455696Y-73778595D01*
X107355061Y-73535641D01*
X107208962Y-73316987D01*
X107023013Y-73131038D01*
X106804359Y-72984939D01*
X106561405Y-72884304D01*
X106303486Y-72833000D01*
X106040514Y-72833000D01*
X105782595Y-72884304D01*
X105539641Y-72984939D01*
X105320987Y-73131038D01*
X105135038Y-73316987D01*
X104988939Y-73535641D01*
X104888304Y-73778595D01*
X104837000Y-74036514D01*
X102946744Y-74036514D01*
X102195100Y-73284870D01*
X101259067Y-72659433D01*
X100219004Y-72228625D01*
X99114878Y-72009000D01*
X97989122Y-72009000D01*
X96884996Y-72228625D01*
X95844933Y-72659433D01*
X94908900Y-73284870D01*
X94112870Y-74080900D01*
X93487433Y-75016933D01*
X93056625Y-76056996D01*
X92837000Y-77161122D01*
X92100000Y-77161122D01*
X92100000Y-67484000D01*
X97961138Y-67484000D01*
X97992513Y-67802556D01*
X98085432Y-68108869D01*
X98236325Y-68391170D01*
X98439392Y-68638608D01*
X98686830Y-68841675D01*
X98969131Y-68992568D01*
X99275444Y-69085487D01*
X99514176Y-69109000D01*
X101653824Y-69109000D01*
X101892556Y-69085487D01*
X102198869Y-68992568D01*
X102481170Y-68841675D01*
X102728608Y-68638608D01*
X102931675Y-68391170D01*
X103082568Y-68108869D01*
X103175487Y-67802556D01*
X103206862Y-67484000D01*
X103203973Y-67454665D01*
X108801000Y-67454665D01*
X108801000Y-67737335D01*
X108856147Y-68014574D01*
X108964320Y-68275727D01*
X109121363Y-68510759D01*
X109206604Y-68596000D01*
X109121363Y-68681241D01*
X108964320Y-68916273D01*
X108856147Y-69177426D01*
X108801000Y-69454665D01*
X108801000Y-69737335D01*
X108856147Y-70014574D01*
X108964320Y-70275727D01*
X109121363Y-70510759D01*
X109321241Y-70710637D01*
X109556273Y-70867680D01*
X109817426Y-70975853D01*
X110094665Y-71031000D01*
X110377335Y-71031000D01*
X110654574Y-70975853D01*
X110915727Y-70867680D01*
X111150759Y-70710637D01*
X111350637Y-70510759D01*
X111507680Y-70275727D01*
X111615853Y-70014574D01*
X111671000Y-69737335D01*
X111671000Y-69454665D01*
X111615853Y-69177426D01*
X111507680Y-68916273D01*
X111350637Y-68681241D01*
X111265396Y-68596000D01*
X111350637Y-68510759D01*
X111507680Y-68275727D01*
X111615853Y-68014574D01*
X111671000Y-67737335D01*
X111671000Y-67564000D01*
X114941388Y-67564000D01*
X114963785Y-67791400D01*
X115030115Y-68010060D01*
X115131105Y-68199000D01*
X115030115Y-68387940D01*
X114963785Y-68606600D01*
X114941388Y-68834000D01*
X114963785Y-69061400D01*
X115027093Y-69270098D01*
X114992498Y-69334820D01*
X114956188Y-69454518D01*
X114943928Y-69579000D01*
X114943928Y-70629000D01*
X114956188Y-70753482D01*
X114992498Y-70873180D01*
X115051463Y-70983494D01*
X115130815Y-71080185D01*
X115227506Y-71159537D01*
X115337820Y-71218502D01*
X115457518Y-71254812D01*
X115582000Y-71267072D01*
X117082000Y-71267072D01*
X117206482Y-71254812D01*
X117326180Y-71218502D01*
X117436494Y-71159537D01*
X117533185Y-71080185D01*
X117612537Y-70983494D01*
X117671502Y-70873180D01*
X117707812Y-70753482D01*
X117720072Y-70629000D01*
X117720072Y-70588702D01*
X121106903Y-70588702D01*
X121178486Y-70832671D01*
X121433996Y-70953571D01*
X121708184Y-71022300D01*
X121990512Y-71036217D01*
X122270130Y-70994787D01*
X122536292Y-70899603D01*
X122661514Y-70832671D01*
X122733097Y-70588702D01*
X121920000Y-69775605D01*
X121106903Y-70588702D01*
X117720072Y-70588702D01*
X117720072Y-69666512D01*
X120479783Y-69666512D01*
X120521213Y-69946130D01*
X120616397Y-70212292D01*
X120683329Y-70337514D01*
X120927298Y-70409097D01*
X121740395Y-69596000D01*
X121726253Y-69581858D01*
X121905858Y-69402253D01*
X121920000Y-69416395D01*
X121934143Y-69402253D01*
X122113748Y-69581858D01*
X122099605Y-69596000D01*
X122912702Y-70409097D01*
X123156671Y-70337514D01*
X123277571Y-70082004D01*
X123346300Y-69807816D01*
X123360217Y-69525488D01*
X123318787Y-69245870D01*
X123223603Y-68979708D01*
X123156671Y-68854486D01*
X122912704Y-68782903D01*
X123028977Y-68666630D01*
X122953872Y-68591525D01*
X123034637Y-68510759D01*
X123191680Y-68275727D01*
X123299853Y-68014574D01*
X123355000Y-67737335D01*
X123355000Y-67454665D01*
X123299853Y-67177426D01*
X123215178Y-66973001D01*
X128953928Y-66973001D01*
X128953928Y-68953001D01*
X128966188Y-69077483D01*
X129002498Y-69197181D01*
X129061463Y-69307495D01*
X129140815Y-69404186D01*
X129237506Y-69483538D01*
X129347820Y-69542503D01*
X129467518Y-69578813D01*
X129592000Y-69591073D01*
X133552000Y-69591073D01*
X133676482Y-69578813D01*
X133796180Y-69542503D01*
X133906494Y-69483538D01*
X134003185Y-69404186D01*
X134082537Y-69307495D01*
X134141502Y-69197181D01*
X134177812Y-69077483D01*
X134190072Y-68953001D01*
X134190072Y-66973001D01*
X134177812Y-66848519D01*
X134141502Y-66728821D01*
X134082537Y-66618507D01*
X134003185Y-66521816D01*
X133906494Y-66442464D01*
X133796180Y-66383499D01*
X133676482Y-66347189D01*
X133552000Y-66334929D01*
X129592000Y-66334929D01*
X129467518Y-66347189D01*
X129347820Y-66383499D01*
X129237506Y-66442464D01*
X129140815Y-66521816D01*
X129061463Y-66618507D01*
X129002498Y-66728821D01*
X128966188Y-66848519D01*
X128953928Y-66973001D01*
X123215178Y-66973001D01*
X123191680Y-66916273D01*
X123034637Y-66681241D01*
X122834759Y-66481363D01*
X122599727Y-66324320D01*
X122338574Y-66216147D01*
X122061335Y-66161000D01*
X121778665Y-66161000D01*
X121501426Y-66216147D01*
X121240273Y-66324320D01*
X121005241Y-66481363D01*
X120805363Y-66681241D01*
X120648320Y-66916273D01*
X120540147Y-67177426D01*
X120485000Y-67454665D01*
X120485000Y-67737335D01*
X120540147Y-68014574D01*
X120648320Y-68275727D01*
X120805363Y-68510759D01*
X120886129Y-68591525D01*
X120811023Y-68666630D01*
X120927296Y-68782903D01*
X120683329Y-68854486D01*
X120562429Y-69109996D01*
X120493700Y-69384184D01*
X120479783Y-69666512D01*
X117720072Y-69666512D01*
X117720072Y-69579000D01*
X117707812Y-69454518D01*
X117671502Y-69334820D01*
X117636907Y-69270098D01*
X117700215Y-69061400D01*
X117722612Y-68834000D01*
X117700215Y-68606600D01*
X117633885Y-68387940D01*
X117532895Y-68199000D01*
X117633885Y-68010060D01*
X117700215Y-67791400D01*
X117722612Y-67564000D01*
X117700215Y-67336600D01*
X117633885Y-67117940D01*
X117526171Y-66916421D01*
X117381212Y-66739788D01*
X117204579Y-66594829D01*
X117003060Y-66487115D01*
X116784400Y-66420785D01*
X116613979Y-66404000D01*
X116050021Y-66404000D01*
X115879600Y-66420785D01*
X115660940Y-66487115D01*
X115459421Y-66594829D01*
X115282788Y-66739788D01*
X115137829Y-66916421D01*
X115030115Y-67117940D01*
X114963785Y-67336600D01*
X114941388Y-67564000D01*
X111671000Y-67564000D01*
X111671000Y-67454665D01*
X111615853Y-67177426D01*
X111507680Y-66916273D01*
X111350637Y-66681241D01*
X111150759Y-66481363D01*
X110915727Y-66324320D01*
X110654574Y-66216147D01*
X110377335Y-66161000D01*
X110094665Y-66161000D01*
X109817426Y-66216147D01*
X109556273Y-66324320D01*
X109321241Y-66481363D01*
X109121363Y-66681241D01*
X108964320Y-66916273D01*
X108856147Y-67177426D01*
X108801000Y-67454665D01*
X103203973Y-67454665D01*
X103175487Y-67165444D01*
X103082568Y-66859131D01*
X102931675Y-66576830D01*
X102728608Y-66329392D01*
X102481170Y-66126325D01*
X102198869Y-65975432D01*
X101892556Y-65882513D01*
X101653824Y-65859000D01*
X99514176Y-65859000D01*
X99275444Y-65882513D01*
X98969131Y-65975432D01*
X98686830Y-66126325D01*
X98439392Y-66329392D01*
X98236325Y-66576830D01*
X98085432Y-66859131D01*
X97992513Y-67165444D01*
X97961138Y-67484000D01*
X92100000Y-67484000D01*
X92100000Y-64384514D01*
X110425000Y-64384514D01*
X110425000Y-64647486D01*
X110476304Y-64905405D01*
X110576939Y-65148359D01*
X110723038Y-65367013D01*
X110908987Y-65552962D01*
X111127641Y-65699061D01*
X111370595Y-65799696D01*
X111628514Y-65851000D01*
X111891486Y-65851000D01*
X112149405Y-65799696D01*
X112392359Y-65699061D01*
X112611013Y-65552962D01*
X112796962Y-65367013D01*
X112943061Y-65148359D01*
X113043696Y-64905405D01*
X113095000Y-64647486D01*
X113095000Y-64384514D01*
X119061000Y-64384514D01*
X119061000Y-64647486D01*
X119112304Y-64905405D01*
X119212939Y-65148359D01*
X119359038Y-65367013D01*
X119544987Y-65552962D01*
X119763641Y-65699061D01*
X120006595Y-65799696D01*
X120264514Y-65851000D01*
X120527486Y-65851000D01*
X120785405Y-65799696D01*
X121028359Y-65699061D01*
X121247013Y-65552962D01*
X121432962Y-65367013D01*
X121579061Y-65148359D01*
X121679696Y-64905405D01*
X121731000Y-64647486D01*
X121731000Y-64384514D01*
X121679696Y-64126595D01*
X121579061Y-63883641D01*
X121432962Y-63664987D01*
X121247013Y-63479038D01*
X121041720Y-63341866D01*
X129001782Y-63341866D01*
X129032095Y-63467529D01*
X129160304Y-63760206D01*
X129343148Y-64022247D01*
X129573601Y-64243582D01*
X129842806Y-64415705D01*
X130140418Y-64532001D01*
X130455000Y-64588001D01*
X131445000Y-64588001D01*
X131445000Y-63090001D01*
X131699000Y-63090001D01*
X131699000Y-64588001D01*
X132689000Y-64588001D01*
X133003582Y-64532001D01*
X133301194Y-64415705D01*
X133570399Y-64243582D01*
X133800852Y-64022247D01*
X133983696Y-63760206D01*
X134111905Y-63467529D01*
X134142218Y-63341866D01*
X134022740Y-63090001D01*
X131699000Y-63090001D01*
X131445000Y-63090001D01*
X129121260Y-63090001D01*
X129001782Y-63341866D01*
X121041720Y-63341866D01*
X121028359Y-63332939D01*
X120785405Y-63232304D01*
X120527486Y-63181000D01*
X120264514Y-63181000D01*
X120006595Y-63232304D01*
X119763641Y-63332939D01*
X119544987Y-63479038D01*
X119359038Y-63664987D01*
X119212939Y-63883641D01*
X119112304Y-64126595D01*
X119061000Y-64384514D01*
X113095000Y-64384514D01*
X113043696Y-64126595D01*
X112943061Y-63883641D01*
X112796962Y-63664987D01*
X112611013Y-63479038D01*
X112392359Y-63332939D01*
X112149405Y-63232304D01*
X111891486Y-63181000D01*
X111628514Y-63181000D01*
X111370595Y-63232304D01*
X111127641Y-63332939D01*
X110908987Y-63479038D01*
X110723038Y-63664987D01*
X110576939Y-63883641D01*
X110476304Y-64126595D01*
X110425000Y-64384514D01*
X92100000Y-64384514D01*
X92100000Y-63474000D01*
X97965928Y-63474000D01*
X97978188Y-63598482D01*
X98014498Y-63718180D01*
X98073463Y-63828494D01*
X98152815Y-63925185D01*
X98249506Y-64004537D01*
X98359820Y-64063502D01*
X98479518Y-64099812D01*
X98604000Y-64112072D01*
X100298250Y-64109000D01*
X100457000Y-63950250D01*
X100457000Y-62611000D01*
X100711000Y-62611000D01*
X100711000Y-63950250D01*
X100869750Y-64109000D01*
X102564000Y-64112072D01*
X102688482Y-64099812D01*
X102808180Y-64063502D01*
X102918494Y-64004537D01*
X103015185Y-63925185D01*
X103094537Y-63828494D01*
X103153502Y-63718180D01*
X103189812Y-63598482D01*
X103202072Y-63474000D01*
X103199000Y-62769750D01*
X103040250Y-62611000D01*
X100711000Y-62611000D01*
X100457000Y-62611000D01*
X98127750Y-62611000D01*
X97969000Y-62769750D01*
X97965928Y-63474000D01*
X92100000Y-63474000D01*
X92100000Y-62584136D01*
X129001782Y-62584136D01*
X129121260Y-62836001D01*
X131445000Y-62836001D01*
X131445000Y-61338001D01*
X131699000Y-61338001D01*
X131699000Y-62836001D01*
X134022740Y-62836001D01*
X134142218Y-62584136D01*
X134111905Y-62458473D01*
X133983696Y-62165796D01*
X133800852Y-61903755D01*
X133570399Y-61682420D01*
X133301194Y-61510297D01*
X133003582Y-61394001D01*
X132689000Y-61338001D01*
X131699000Y-61338001D01*
X131445000Y-61338001D01*
X130455000Y-61338001D01*
X130140418Y-61394001D01*
X129842806Y-61510297D01*
X129573601Y-61682420D01*
X129343148Y-61903755D01*
X129160304Y-62165796D01*
X129032095Y-62458473D01*
X129001782Y-62584136D01*
X92100000Y-62584136D01*
X92100000Y-61494000D01*
X97965928Y-61494000D01*
X97969000Y-62198250D01*
X98127750Y-62357000D01*
X100457000Y-62357000D01*
X100457000Y-61017750D01*
X100711000Y-61017750D01*
X100711000Y-62357000D01*
X103040250Y-62357000D01*
X103199000Y-62198250D01*
X103202072Y-61494000D01*
X103189812Y-61369518D01*
X103153502Y-61249820D01*
X103094537Y-61139506D01*
X103015185Y-61042815D01*
X102918494Y-60963463D01*
X102808180Y-60904498D01*
X102688482Y-60868188D01*
X102564000Y-60855928D01*
X100869750Y-60859000D01*
X100711000Y-61017750D01*
X100457000Y-61017750D01*
X100298250Y-60859000D01*
X98604000Y-60855928D01*
X98479518Y-60868188D01*
X98359820Y-60904498D01*
X98249506Y-60963463D01*
X98152815Y-61042815D01*
X98073463Y-61139506D01*
X98014498Y-61249820D01*
X97978188Y-61369518D01*
X97965928Y-61494000D01*
X92100000Y-61494000D01*
X92100000Y-58452279D01*
X92148584Y-57956784D01*
X92283112Y-57511207D01*
X92432988Y-57229330D01*
X110467278Y-57229330D01*
X110557147Y-57475123D01*
X110693241Y-57698660D01*
X110870330Y-57891351D01*
X111081608Y-58045792D01*
X111318956Y-58156047D01*
X111426671Y-58188716D01*
X111633000Y-58065374D01*
X111633000Y-57023000D01*
X111887000Y-57023000D01*
X111887000Y-58065374D01*
X112093329Y-58188716D01*
X112201044Y-58156047D01*
X112438392Y-58045792D01*
X112649670Y-57891351D01*
X112826759Y-57698660D01*
X112962853Y-57475123D01*
X113052722Y-57229330D01*
X119103278Y-57229330D01*
X119193147Y-57475123D01*
X119329241Y-57698660D01*
X119506330Y-57891351D01*
X119717608Y-58045792D01*
X119954956Y-58156047D01*
X120062671Y-58188716D01*
X120269000Y-58065374D01*
X120269000Y-57023000D01*
X120523000Y-57023000D01*
X120523000Y-58065374D01*
X120729329Y-58188716D01*
X120837044Y-58156047D01*
X121074392Y-58045792D01*
X121285670Y-57891351D01*
X121462759Y-57698660D01*
X121598853Y-57475123D01*
X121688722Y-57229330D01*
X121566201Y-57023000D01*
X120523000Y-57023000D01*
X120269000Y-57023000D01*
X119225799Y-57023000D01*
X119103278Y-57229330D01*
X113052722Y-57229330D01*
X112930201Y-57023000D01*
X111887000Y-57023000D01*
X111633000Y-57023000D01*
X110589799Y-57023000D01*
X110467278Y-57229330D01*
X92432988Y-57229330D01*
X92501620Y-57100254D01*
X92795788Y-56739566D01*
X93154419Y-56442881D01*
X93563838Y-56221509D01*
X94008465Y-56083874D01*
X94502011Y-56032000D01*
X110749614Y-56032000D01*
X110693241Y-56093340D01*
%TA.AperFunction,Conductor*%
D19*
G36*
X110693241Y-56093340D02*
G01*
X110557147Y-56316877D01*
X110467278Y-56562670D01*
X110589799Y-56769000D01*
X111633000Y-56769000D01*
X111633000Y-56749000D01*
X111887000Y-56749000D01*
X111887000Y-56769000D01*
X112930201Y-56769000D01*
X113052722Y-56562670D01*
X112962853Y-56316877D01*
X112826759Y-56093340D01*
X112770386Y-56032000D01*
X119385614Y-56032000D01*
X119329241Y-56093340D01*
X119193147Y-56316877D01*
X119103278Y-56562670D01*
X119225799Y-56769000D01*
X120269000Y-56769000D01*
X120269000Y-56749000D01*
X120523000Y-56749000D01*
X120523000Y-56769000D01*
X121566201Y-56769000D01*
X121688722Y-56562670D01*
X121598853Y-56316877D01*
X121462759Y-56093340D01*
X121406386Y-56032000D01*
X137635721Y-56032000D01*
X138131216Y-56080584D01*
X138576793Y-56215112D01*
X138987746Y-56433620D01*
X139348434Y-56727788D01*
X139645119Y-57086419D01*
X139866491Y-57495838D01*
X140004126Y-57940465D01*
X140056001Y-58434021D01*
X140056000Y-74708418D01*
X140056001Y-74708428D01*
X140056000Y-81247721D01*
X140007416Y-81743216D01*
X139872890Y-82188790D01*
X139654382Y-82599745D01*
X139360209Y-82960436D01*
X139001581Y-83257119D01*
X138592162Y-83478491D01*
X138147535Y-83616126D01*
X137653990Y-83668000D01*
X94520279Y-83668000D01*
X94024784Y-83619416D01*
X93579210Y-83484890D01*
X93168255Y-83266382D01*
X92807564Y-82972209D01*
X92510881Y-82613581D01*
X92289509Y-82204162D01*
X92151874Y-81759535D01*
X92100000Y-81265990D01*
X92100000Y-77161122D01*
X92837000Y-77161122D01*
X92837000Y-78286878D01*
X93056625Y-79391004D01*
X93487433Y-80431067D01*
X94112870Y-81367100D01*
X94908900Y-82163130D01*
X95844933Y-82788567D01*
X96884996Y-83219375D01*
X97989122Y-83439000D01*
X99114878Y-83439000D01*
X100219004Y-83219375D01*
X101259067Y-82788567D01*
X102195100Y-82163130D01*
X102597034Y-81761196D01*
X130254409Y-81761196D01*
X130840124Y-82443416D01*
X131823704Y-82991045D01*
X132895223Y-83336265D01*
X134013501Y-83465808D01*
X135135565Y-83374697D01*
X136218294Y-83066433D01*
X137220079Y-82552863D01*
X137383876Y-82443416D01*
X137969591Y-81761196D01*
X134112000Y-77903605D01*
X130254409Y-81761196D01*
X102597034Y-81761196D01*
X102991130Y-81367100D01*
X103616567Y-80431067D01*
X104047375Y-79391004D01*
X104267000Y-78286878D01*
X104267000Y-77625501D01*
X128370192Y-77625501D01*
X128461303Y-78747565D01*
X128769567Y-79830294D01*
X129283137Y-80832079D01*
X129392584Y-80995876D01*
X130074804Y-81581591D01*
X133932395Y-77724000D01*
X134291605Y-77724000D01*
X138149196Y-81581591D01*
X138831416Y-80995876D01*
X139379045Y-80012296D01*
X139724265Y-78940777D01*
X139853808Y-77822499D01*
X139762697Y-76700435D01*
X139454433Y-75617706D01*
X138940863Y-74615921D01*
X138831416Y-74452124D01*
X138149196Y-73866409D01*
X134291605Y-77724000D01*
X133932395Y-77724000D01*
X130074804Y-73866409D01*
X129392584Y-74452124D01*
X128844955Y-75435704D01*
X128499735Y-76507223D01*
X128370192Y-77625501D01*
X104267000Y-77625501D01*
X104267000Y-77161122D01*
X104047375Y-76056996D01*
X103616567Y-75016933D01*
X102991130Y-74080900D01*
X102946744Y-74036514D01*
X104837000Y-74036514D01*
X104837000Y-74299486D01*
X104888304Y-74557405D01*
X104988939Y-74800359D01*
X105135038Y-75019013D01*
X105320987Y-75204962D01*
X105539641Y-75351061D01*
X105782595Y-75451696D01*
X106040514Y-75503000D01*
X106303486Y-75503000D01*
X106561405Y-75451696D01*
X106804359Y-75351061D01*
X107023013Y-75204962D01*
X107208962Y-75019013D01*
X107355061Y-74800359D01*
X107455696Y-74557405D01*
X107507000Y-74299486D01*
X107507000Y-74036514D01*
X112457000Y-74036514D01*
X112457000Y-74299486D01*
X112508304Y-74557405D01*
X112608939Y-74800359D01*
X112755038Y-75019013D01*
X112940987Y-75204962D01*
X113159641Y-75351061D01*
X113402595Y-75451696D01*
X113660514Y-75503000D01*
X113923486Y-75503000D01*
X114181405Y-75451696D01*
X114424359Y-75351061D01*
X114643013Y-75204962D01*
X114828962Y-75019013D01*
X114975061Y-74800359D01*
X115075696Y-74557405D01*
X115127000Y-74299486D01*
X115127000Y-74036514D01*
X116013000Y-74036514D01*
X116013000Y-74299486D01*
X116064304Y-74557405D01*
X116164939Y-74800359D01*
X116311038Y-75019013D01*
X116496987Y-75204962D01*
X116715641Y-75351061D01*
X116958595Y-75451696D01*
X117216514Y-75503000D01*
X117479486Y-75503000D01*
X117737405Y-75451696D01*
X117980359Y-75351061D01*
X118199013Y-75204962D01*
X118384962Y-75019013D01*
X118531061Y-74800359D01*
X118631696Y-74557405D01*
X118683000Y-74299486D01*
X118683000Y-74036514D01*
X123633000Y-74036514D01*
X123633000Y-74299486D01*
X123684304Y-74557405D01*
X123784939Y-74800359D01*
X123931038Y-75019013D01*
X124116987Y-75204962D01*
X124335641Y-75351061D01*
X124578595Y-75451696D01*
X124836514Y-75503000D01*
X125099486Y-75503000D01*
X125357405Y-75451696D01*
X125600359Y-75351061D01*
X125819013Y-75204962D01*
X126004962Y-75019013D01*
X126151061Y-74800359D01*
X126251696Y-74557405D01*
X126303000Y-74299486D01*
X126303000Y-74036514D01*
X126251696Y-73778595D01*
X126213675Y-73686804D01*
X130254409Y-73686804D01*
X134112000Y-77544395D01*
X137969591Y-73686804D01*
X137383876Y-73004584D01*
X136400296Y-72456955D01*
X135328777Y-72111735D01*
X134210499Y-71982192D01*
X133088435Y-72073303D01*
X132005706Y-72381567D01*
X131003921Y-72895137D01*
X130840124Y-73004584D01*
X130254409Y-73686804D01*
X126213675Y-73686804D01*
X126151061Y-73535641D01*
X126004962Y-73316987D01*
X125819013Y-73131038D01*
X125600359Y-72984939D01*
X125357405Y-72884304D01*
X125099486Y-72833000D01*
X124836514Y-72833000D01*
X124578595Y-72884304D01*
X124335641Y-72984939D01*
X124116987Y-73131038D01*
X123931038Y-73316987D01*
X123784939Y-73535641D01*
X123684304Y-73778595D01*
X123633000Y-74036514D01*
X118683000Y-74036514D01*
X118631696Y-73778595D01*
X118531061Y-73535641D01*
X118384962Y-73316987D01*
X118199013Y-73131038D01*
X117980359Y-72984939D01*
X117737405Y-72884304D01*
X117479486Y-72833000D01*
X117216514Y-72833000D01*
X116958595Y-72884304D01*
X116715641Y-72984939D01*
X116496987Y-73131038D01*
X116311038Y-73316987D01*
X116164939Y-73535641D01*
X116064304Y-73778595D01*
X116013000Y-74036514D01*
X115127000Y-74036514D01*
X115075696Y-73778595D01*
X114975061Y-73535641D01*
X114828962Y-73316987D01*
X114643013Y-73131038D01*
X114424359Y-72984939D01*
X114181405Y-72884304D01*
X113923486Y-72833000D01*
X113660514Y-72833000D01*
X113402595Y-72884304D01*
X113159641Y-72984939D01*
X112940987Y-73131038D01*
X112755038Y-73316987D01*
X112608939Y-73535641D01*
X112508304Y-73778595D01*
X112457000Y-74036514D01*
X107507000Y-74036514D01*
X107455696Y-73778595D01*
X107355061Y-73535641D01*
X107208962Y-73316987D01*
X107023013Y-73131038D01*
X106804359Y-72984939D01*
X106561405Y-72884304D01*
X106303486Y-72833000D01*
X106040514Y-72833000D01*
X105782595Y-72884304D01*
X105539641Y-72984939D01*
X105320987Y-73131038D01*
X105135038Y-73316987D01*
X104988939Y-73535641D01*
X104888304Y-73778595D01*
X104837000Y-74036514D01*
X102946744Y-74036514D01*
X102195100Y-73284870D01*
X101259067Y-72659433D01*
X100219004Y-72228625D01*
X99114878Y-72009000D01*
X97989122Y-72009000D01*
X96884996Y-72228625D01*
X95844933Y-72659433D01*
X94908900Y-73284870D01*
X94112870Y-74080900D01*
X93487433Y-75016933D01*
X93056625Y-76056996D01*
X92837000Y-77161122D01*
X92100000Y-77161122D01*
X92100000Y-67484000D01*
X97961138Y-67484000D01*
X97992513Y-67802556D01*
X98085432Y-68108869D01*
X98236325Y-68391170D01*
X98439392Y-68638608D01*
X98686830Y-68841675D01*
X98969131Y-68992568D01*
X99275444Y-69085487D01*
X99514176Y-69109000D01*
X101653824Y-69109000D01*
X101892556Y-69085487D01*
X102198869Y-68992568D01*
X102481170Y-68841675D01*
X102728608Y-68638608D01*
X102931675Y-68391170D01*
X103082568Y-68108869D01*
X103175487Y-67802556D01*
X103206862Y-67484000D01*
X103203973Y-67454665D01*
X108801000Y-67454665D01*
X108801000Y-67737335D01*
X108856147Y-68014574D01*
X108964320Y-68275727D01*
X109121363Y-68510759D01*
X109206604Y-68596000D01*
X109121363Y-68681241D01*
X108964320Y-68916273D01*
X108856147Y-69177426D01*
X108801000Y-69454665D01*
X108801000Y-69737335D01*
X108856147Y-70014574D01*
X108964320Y-70275727D01*
X109121363Y-70510759D01*
X109321241Y-70710637D01*
X109556273Y-70867680D01*
X109817426Y-70975853D01*
X110094665Y-71031000D01*
X110377335Y-71031000D01*
X110654574Y-70975853D01*
X110915727Y-70867680D01*
X111150759Y-70710637D01*
X111350637Y-70510759D01*
X111507680Y-70275727D01*
X111615853Y-70014574D01*
X111671000Y-69737335D01*
X111671000Y-69454665D01*
X111615853Y-69177426D01*
X111507680Y-68916273D01*
X111350637Y-68681241D01*
X111265396Y-68596000D01*
X111350637Y-68510759D01*
X111507680Y-68275727D01*
X111615853Y-68014574D01*
X111671000Y-67737335D01*
X111671000Y-67564000D01*
X114941388Y-67564000D01*
X114963785Y-67791400D01*
X115030115Y-68010060D01*
X115131105Y-68199000D01*
X115030115Y-68387940D01*
X114963785Y-68606600D01*
X114941388Y-68834000D01*
X114963785Y-69061400D01*
X115027093Y-69270098D01*
X114992498Y-69334820D01*
X114956188Y-69454518D01*
X114943928Y-69579000D01*
X114943928Y-70629000D01*
X114956188Y-70753482D01*
X114992498Y-70873180D01*
X115051463Y-70983494D01*
X115130815Y-71080185D01*
X115227506Y-71159537D01*
X115337820Y-71218502D01*
X115457518Y-71254812D01*
X115582000Y-71267072D01*
X117082000Y-71267072D01*
X117206482Y-71254812D01*
X117326180Y-71218502D01*
X117436494Y-71159537D01*
X117533185Y-71080185D01*
X117612537Y-70983494D01*
X117671502Y-70873180D01*
X117707812Y-70753482D01*
X117720072Y-70629000D01*
X117720072Y-70588702D01*
X121106903Y-70588702D01*
X121178486Y-70832671D01*
X121433996Y-70953571D01*
X121708184Y-71022300D01*
X121990512Y-71036217D01*
X122270130Y-70994787D01*
X122536292Y-70899603D01*
X122661514Y-70832671D01*
X122733097Y-70588702D01*
X121920000Y-69775605D01*
X121106903Y-70588702D01*
X117720072Y-70588702D01*
X117720072Y-69666512D01*
X120479783Y-69666512D01*
X120521213Y-69946130D01*
X120616397Y-70212292D01*
X120683329Y-70337514D01*
X120927298Y-70409097D01*
X121740395Y-69596000D01*
X121726253Y-69581858D01*
X121905858Y-69402253D01*
X121920000Y-69416395D01*
X121934143Y-69402253D01*
X122113748Y-69581858D01*
X122099605Y-69596000D01*
X122912702Y-70409097D01*
X123156671Y-70337514D01*
X123277571Y-70082004D01*
X123346300Y-69807816D01*
X123360217Y-69525488D01*
X123318787Y-69245870D01*
X123223603Y-68979708D01*
X123156671Y-68854486D01*
X122912704Y-68782903D01*
X123028977Y-68666630D01*
X122953872Y-68591525D01*
X123034637Y-68510759D01*
X123191680Y-68275727D01*
X123299853Y-68014574D01*
X123355000Y-67737335D01*
X123355000Y-67454665D01*
X123299853Y-67177426D01*
X123215178Y-66973001D01*
X128953928Y-66973001D01*
X128953928Y-68953001D01*
X128966188Y-69077483D01*
X129002498Y-69197181D01*
X129061463Y-69307495D01*
X129140815Y-69404186D01*
X129237506Y-69483538D01*
X129347820Y-69542503D01*
X129467518Y-69578813D01*
X129592000Y-69591073D01*
X133552000Y-69591073D01*
X133676482Y-69578813D01*
X133796180Y-69542503D01*
X133906494Y-69483538D01*
X134003185Y-69404186D01*
X134082537Y-69307495D01*
X134141502Y-69197181D01*
X134177812Y-69077483D01*
X134190072Y-68953001D01*
X134190072Y-66973001D01*
X134177812Y-66848519D01*
X134141502Y-66728821D01*
X134082537Y-66618507D01*
X134003185Y-66521816D01*
X133906494Y-66442464D01*
X133796180Y-66383499D01*
X133676482Y-66347189D01*
X133552000Y-66334929D01*
X129592000Y-66334929D01*
X129467518Y-66347189D01*
X129347820Y-66383499D01*
X129237506Y-66442464D01*
X129140815Y-66521816D01*
X129061463Y-66618507D01*
X129002498Y-66728821D01*
X128966188Y-66848519D01*
X128953928Y-66973001D01*
X123215178Y-66973001D01*
X123191680Y-66916273D01*
X123034637Y-66681241D01*
X122834759Y-66481363D01*
X122599727Y-66324320D01*
X122338574Y-66216147D01*
X122061335Y-66161000D01*
X121778665Y-66161000D01*
X121501426Y-66216147D01*
X121240273Y-66324320D01*
X121005241Y-66481363D01*
X120805363Y-66681241D01*
X120648320Y-66916273D01*
X120540147Y-67177426D01*
X120485000Y-67454665D01*
X120485000Y-67737335D01*
X120540147Y-68014574D01*
X120648320Y-68275727D01*
X120805363Y-68510759D01*
X120886129Y-68591525D01*
X120811023Y-68666630D01*
X120927296Y-68782903D01*
X120683329Y-68854486D01*
X120562429Y-69109996D01*
X120493700Y-69384184D01*
X120479783Y-69666512D01*
X117720072Y-69666512D01*
X117720072Y-69579000D01*
X117707812Y-69454518D01*
X117671502Y-69334820D01*
X117636907Y-69270098D01*
X117700215Y-69061400D01*
X117722612Y-68834000D01*
X117700215Y-68606600D01*
X117633885Y-68387940D01*
X117532895Y-68199000D01*
X117633885Y-68010060D01*
X117700215Y-67791400D01*
X117722612Y-67564000D01*
X117700215Y-67336600D01*
X117633885Y-67117940D01*
X117526171Y-66916421D01*
X117381212Y-66739788D01*
X117204579Y-66594829D01*
X117003060Y-66487115D01*
X116784400Y-66420785D01*
X116613979Y-66404000D01*
X116050021Y-66404000D01*
X115879600Y-66420785D01*
X115660940Y-66487115D01*
X115459421Y-66594829D01*
X115282788Y-66739788D01*
X115137829Y-66916421D01*
X115030115Y-67117940D01*
X114963785Y-67336600D01*
X114941388Y-67564000D01*
X111671000Y-67564000D01*
X111671000Y-67454665D01*
X111615853Y-67177426D01*
X111507680Y-66916273D01*
X111350637Y-66681241D01*
X111150759Y-66481363D01*
X110915727Y-66324320D01*
X110654574Y-66216147D01*
X110377335Y-66161000D01*
X110094665Y-66161000D01*
X109817426Y-66216147D01*
X109556273Y-66324320D01*
X109321241Y-66481363D01*
X109121363Y-66681241D01*
X108964320Y-66916273D01*
X108856147Y-67177426D01*
X108801000Y-67454665D01*
X103203973Y-67454665D01*
X103175487Y-67165444D01*
X103082568Y-66859131D01*
X102931675Y-66576830D01*
X102728608Y-66329392D01*
X102481170Y-66126325D01*
X102198869Y-65975432D01*
X101892556Y-65882513D01*
X101653824Y-65859000D01*
X99514176Y-65859000D01*
X99275444Y-65882513D01*
X98969131Y-65975432D01*
X98686830Y-66126325D01*
X98439392Y-66329392D01*
X98236325Y-66576830D01*
X98085432Y-66859131D01*
X97992513Y-67165444D01*
X97961138Y-67484000D01*
X92100000Y-67484000D01*
X92100000Y-64384514D01*
X110425000Y-64384514D01*
X110425000Y-64647486D01*
X110476304Y-64905405D01*
X110576939Y-65148359D01*
X110723038Y-65367013D01*
X110908987Y-65552962D01*
X111127641Y-65699061D01*
X111370595Y-65799696D01*
X111628514Y-65851000D01*
X111891486Y-65851000D01*
X112149405Y-65799696D01*
X112392359Y-65699061D01*
X112611013Y-65552962D01*
X112796962Y-65367013D01*
X112943061Y-65148359D01*
X113043696Y-64905405D01*
X113095000Y-64647486D01*
X113095000Y-64384514D01*
X119061000Y-64384514D01*
X119061000Y-64647486D01*
X119112304Y-64905405D01*
X119212939Y-65148359D01*
X119359038Y-65367013D01*
X119544987Y-65552962D01*
X119763641Y-65699061D01*
X120006595Y-65799696D01*
X120264514Y-65851000D01*
X120527486Y-65851000D01*
X120785405Y-65799696D01*
X121028359Y-65699061D01*
X121247013Y-65552962D01*
X121432962Y-65367013D01*
X121579061Y-65148359D01*
X121679696Y-64905405D01*
X121731000Y-64647486D01*
X121731000Y-64384514D01*
X121679696Y-64126595D01*
X121579061Y-63883641D01*
X121432962Y-63664987D01*
X121247013Y-63479038D01*
X121041720Y-63341866D01*
X129001782Y-63341866D01*
X129032095Y-63467529D01*
X129160304Y-63760206D01*
X129343148Y-64022247D01*
X129573601Y-64243582D01*
X129842806Y-64415705D01*
X130140418Y-64532001D01*
X130455000Y-64588001D01*
X131445000Y-64588001D01*
X131445000Y-63090001D01*
X131699000Y-63090001D01*
X131699000Y-64588001D01*
X132689000Y-64588001D01*
X133003582Y-64532001D01*
X133301194Y-64415705D01*
X133570399Y-64243582D01*
X133800852Y-64022247D01*
X133983696Y-63760206D01*
X134111905Y-63467529D01*
X134142218Y-63341866D01*
X134022740Y-63090001D01*
X131699000Y-63090001D01*
X131445000Y-63090001D01*
X129121260Y-63090001D01*
X129001782Y-63341866D01*
X121041720Y-63341866D01*
X121028359Y-63332939D01*
X120785405Y-63232304D01*
X120527486Y-63181000D01*
X120264514Y-63181000D01*
X120006595Y-63232304D01*
X119763641Y-63332939D01*
X119544987Y-63479038D01*
X119359038Y-63664987D01*
X119212939Y-63883641D01*
X119112304Y-64126595D01*
X119061000Y-64384514D01*
X113095000Y-64384514D01*
X113043696Y-64126595D01*
X112943061Y-63883641D01*
X112796962Y-63664987D01*
X112611013Y-63479038D01*
X112392359Y-63332939D01*
X112149405Y-63232304D01*
X111891486Y-63181000D01*
X111628514Y-63181000D01*
X111370595Y-63232304D01*
X111127641Y-63332939D01*
X110908987Y-63479038D01*
X110723038Y-63664987D01*
X110576939Y-63883641D01*
X110476304Y-64126595D01*
X110425000Y-64384514D01*
X92100000Y-64384514D01*
X92100000Y-63474000D01*
X97965928Y-63474000D01*
X97978188Y-63598482D01*
X98014498Y-63718180D01*
X98073463Y-63828494D01*
X98152815Y-63925185D01*
X98249506Y-64004537D01*
X98359820Y-64063502D01*
X98479518Y-64099812D01*
X98604000Y-64112072D01*
X100298250Y-64109000D01*
X100457000Y-63950250D01*
X100457000Y-62611000D01*
X100711000Y-62611000D01*
X100711000Y-63950250D01*
X100869750Y-64109000D01*
X102564000Y-64112072D01*
X102688482Y-64099812D01*
X102808180Y-64063502D01*
X102918494Y-64004537D01*
X103015185Y-63925185D01*
X103094537Y-63828494D01*
X103153502Y-63718180D01*
X103189812Y-63598482D01*
X103202072Y-63474000D01*
X103199000Y-62769750D01*
X103040250Y-62611000D01*
X100711000Y-62611000D01*
X100457000Y-62611000D01*
X98127750Y-62611000D01*
X97969000Y-62769750D01*
X97965928Y-63474000D01*
X92100000Y-63474000D01*
X92100000Y-62584136D01*
X129001782Y-62584136D01*
X129121260Y-62836001D01*
X131445000Y-62836001D01*
X131445000Y-61338001D01*
X131699000Y-61338001D01*
X131699000Y-62836001D01*
X134022740Y-62836001D01*
X134142218Y-62584136D01*
X134111905Y-62458473D01*
X133983696Y-62165796D01*
X133800852Y-61903755D01*
X133570399Y-61682420D01*
X133301194Y-61510297D01*
X133003582Y-61394001D01*
X132689000Y-61338001D01*
X131699000Y-61338001D01*
X131445000Y-61338001D01*
X130455000Y-61338001D01*
X130140418Y-61394001D01*
X129842806Y-61510297D01*
X129573601Y-61682420D01*
X129343148Y-61903755D01*
X129160304Y-62165796D01*
X129032095Y-62458473D01*
X129001782Y-62584136D01*
X92100000Y-62584136D01*
X92100000Y-61494000D01*
X97965928Y-61494000D01*
X97969000Y-62198250D01*
X98127750Y-62357000D01*
X100457000Y-62357000D01*
X100457000Y-61017750D01*
X100711000Y-61017750D01*
X100711000Y-62357000D01*
X103040250Y-62357000D01*
X103199000Y-62198250D01*
X103202072Y-61494000D01*
X103189812Y-61369518D01*
X103153502Y-61249820D01*
X103094537Y-61139506D01*
X103015185Y-61042815D01*
X102918494Y-60963463D01*
X102808180Y-60904498D01*
X102688482Y-60868188D01*
X102564000Y-60855928D01*
X100869750Y-60859000D01*
X100711000Y-61017750D01*
X100457000Y-61017750D01*
X100298250Y-60859000D01*
X98604000Y-60855928D01*
X98479518Y-60868188D01*
X98359820Y-60904498D01*
X98249506Y-60963463D01*
X98152815Y-61042815D01*
X98073463Y-61139506D01*
X98014498Y-61249820D01*
X97978188Y-61369518D01*
X97965928Y-61494000D01*
X92100000Y-61494000D01*
X92100000Y-58452279D01*
X92148584Y-57956784D01*
X92283112Y-57511207D01*
X92432988Y-57229330D01*
X110467278Y-57229330D01*
X110557147Y-57475123D01*
X110693241Y-57698660D01*
X110870330Y-57891351D01*
X111081608Y-58045792D01*
X111318956Y-58156047D01*
X111426671Y-58188716D01*
X111633000Y-58065374D01*
X111633000Y-57023000D01*
X111887000Y-57023000D01*
X111887000Y-58065374D01*
X112093329Y-58188716D01*
X112201044Y-58156047D01*
X112438392Y-58045792D01*
X112649670Y-57891351D01*
X112826759Y-57698660D01*
X112962853Y-57475123D01*
X113052722Y-57229330D01*
X119103278Y-57229330D01*
X119193147Y-57475123D01*
X119329241Y-57698660D01*
X119506330Y-57891351D01*
X119717608Y-58045792D01*
X119954956Y-58156047D01*
X120062671Y-58188716D01*
X120269000Y-58065374D01*
X120269000Y-57023000D01*
X120523000Y-57023000D01*
X120523000Y-58065374D01*
X120729329Y-58188716D01*
X120837044Y-58156047D01*
X121074392Y-58045792D01*
X121285670Y-57891351D01*
X121462759Y-57698660D01*
X121598853Y-57475123D01*
X121688722Y-57229330D01*
X121566201Y-57023000D01*
X120523000Y-57023000D01*
X120269000Y-57023000D01*
X119225799Y-57023000D01*
X119103278Y-57229330D01*
X113052722Y-57229330D01*
X112930201Y-57023000D01*
X111887000Y-57023000D01*
X111633000Y-57023000D01*
X110589799Y-57023000D01*
X110467278Y-57229330D01*
X92432988Y-57229330D01*
X92501620Y-57100254D01*
X92795788Y-56739566D01*
X93154419Y-56442881D01*
X93563838Y-56221509D01*
X94008465Y-56083874D01*
X94502011Y-56032000D01*
X110749614Y-56032000D01*
X110693241Y-56093340D01*
G37*
%TD.AperFunction*%
%TD*%
M02*
