<?xml version="1.0" standalone="no"?>
 <!DOCTYPE svg PUBLIC "-//W3C//DTD SVG 1.1//EN" 
 "http://www.w3.org/Graphics/SVG/1.1/DTD/svg11.dtd"> 
<svg
  xmlns:svg="http://www.w3.org/2000/svg"
  xmlns="http://www.w3.org/2000/svg"
  xmlns:xlink="http://www.w3.org/1999/xlink"
  version="1.1"
  width="29.700220cm" height="21.000720cm" viewBox="0 0 116930 82680">
<title>SVG Picture created as Single_transistor_AMP-F_Fab.svg date 2022/01/13 18:46:33 </title>
  <desc>Picture generated by PCBNEW </desc>
<g style="fill:#000000; fill-opacity:1;stroke:#000000; stroke-opacity:1;
stroke-linecap:round; stroke-linejoin:round;"
 transform="translate(0 0) scale(1 1)">
</g>
<g style="fill:#000000; fill-opacity:0.0; 
stroke:#000000; stroke-width:-0.000393701; stroke-opacity:1; 
stroke-linecap:round; stroke-linejoin:round;">
</g>
<g style="fill:#000000; fill-opacity:0.0; 
stroke:#000000; stroke-width:39.3701; stroke-opacity:1; 
stroke-linecap:round; stroke-linejoin:round;">
</g>
<g style="fill:#000000; fill-opacity:0.0; 
stroke:#000000; stroke-width:59.0551; stroke-opacity:1; 
stroke-linecap:round; stroke-linejoin:round;">
<rect x="69685.9" y="65357.2" width="42519.7" height="12598.4" rx="0" />
</g>
<g style="fill:#000000; fill-opacity:0.0; 
stroke:#000000; stroke-width:39.3701; stroke-opacity:1; 
stroke-linecap:round; stroke-linejoin:round;">
</g>
<g style="fill:#000000; fill-opacity:0.0; 
stroke:#000000; stroke-width:59.0551; stroke-opacity:1; 
stroke-linecap:round; stroke-linejoin:round;">
<rect x="3937.01" y="3937.01" width="109056" height="74806" rx="0" />
</g>
<g style="fill:#000000; fill-opacity:0.0; 
stroke:#000000; stroke-width:39.3701; stroke-opacity:1; 
stroke-linecap:round; stroke-linejoin:round;">
</g>
<g style="fill:#000000; fill-opacity:0.0; 
stroke:#000000; stroke-width:59.0551; stroke-opacity:1; 
stroke-linecap:round; stroke-linejoin:round;">
<rect x="4724.41" y="4724.41" width="107481" height="73231.2" rx="0" />
</g>
<g style="fill:#000000; fill-opacity:0.0; 
stroke:#000000; stroke-width:39.3701; stroke-opacity:1; 
stroke-linecap:round; stroke-linejoin:round;">
</g>
<g style="fill:#000000; fill-opacity:0.0; 
stroke:#000000; stroke-width:59.0551; stroke-opacity:1; 
stroke-linecap:round; stroke-linejoin:round;">
<path d="M23622 4724
L23622 3937
" />
</g>
<g style="fill:#000000; fill-opacity:0.0; 
stroke:#000000; stroke-width:39.3701; stroke-opacity:1; 
stroke-linecap:round; stroke-linejoin:round;">
</g>
<g style="fill:#000000; fill-opacity:0.0; 
stroke:#000000; stroke-width:59.0551; stroke-opacity:1; 
stroke-linecap:round; stroke-linejoin:round;">
<path d="M43307 4724
L43307 3937
" />
</g>
<g style="fill:#000000; fill-opacity:0.0; 
stroke:#000000; stroke-width:39.3701; stroke-opacity:1; 
stroke-linecap:round; stroke-linejoin:round;">
</g>
<g style="fill:#000000; fill-opacity:0.0; 
stroke:#000000; stroke-width:59.0551; stroke-opacity:1; 
stroke-linecap:round; stroke-linejoin:round;">
<path d="M62992 4724
L62992 3937
" />
</g>
<g style="fill:#000000; fill-opacity:0.0; 
stroke:#000000; stroke-width:39.3701; stroke-opacity:1; 
stroke-linecap:round; stroke-linejoin:round;">
</g>
<g style="fill:#000000; fill-opacity:0.0; 
stroke:#000000; stroke-width:59.0551; stroke-opacity:1; 
stroke-linecap:round; stroke-linejoin:round;">
<path d="M82677 4724
L82677 3937
" />
</g>
<g style="fill:#000000; fill-opacity:0.0; 
stroke:#000000; stroke-width:39.3701; stroke-opacity:1; 
stroke-linecap:round; stroke-linejoin:round;">
</g>
<g style="fill:#000000; fill-opacity:0.0; 
stroke:#000000; stroke-width:59.0551; stroke-opacity:1; 
stroke-linecap:round; stroke-linejoin:round;">
<path d="M102362 4724
L102362 3937
" />
</g>
<g style="fill:#000000; fill-opacity:0.0; 
stroke:#000000; stroke-width:39.3701; stroke-opacity:1; 
stroke-linecap:round; stroke-linejoin:round;">
</g>
<g style="fill:#000000; fill-opacity:0.0; 
stroke:#000000; stroke-width:59.0551; stroke-opacity:1; 
stroke-linecap:round; stroke-linejoin:round;">
<text x="13779.5" y="4586.61"
textLength="546.494" font-size="682.415" lengthAdjust="spacingAndGlyphs"
text-anchor="start" opacity="0">1</text>
<path d="M14199 4562
L13906 4562
" />
<path d="M14052 4562
L14052 4050
L14004 4123
L13955 4172
L13906 4196
" />
</g>
<g style="fill:#000000; fill-opacity:0.0; 
stroke:#000000; stroke-width:39.3701; stroke-opacity:1; 
stroke-linecap:round; stroke-linejoin:round;">
</g>
<g style="fill:#000000; fill-opacity:0.0; 
stroke:#000000; stroke-width:59.0551; stroke-opacity:1; 
stroke-linecap:round; stroke-linejoin:round;">
<text x="33464.6" y="4586.61"
textLength="546.494" font-size="682.415" lengthAdjust="spacingAndGlyphs"
text-anchor="start" opacity="0">2</text>
<path d="M33591 4099
L33615 4074
L33664 4050
L33786 4050
L33835 4074
L33859 4099
L33884 4147
L33884 4196
L33859 4269
L33567 4562
L33884 4562
" />
</g>
<g style="fill:#000000; fill-opacity:0.0; 
stroke:#000000; stroke-width:39.3701; stroke-opacity:1; 
stroke-linecap:round; stroke-linejoin:round;">
</g>
<g style="fill:#000000; fill-opacity:0.0; 
stroke:#000000; stroke-width:59.0551; stroke-opacity:1; 
stroke-linecap:round; stroke-linejoin:round;">
<text x="53149.6" y="4586.61"
textLength="546.494" font-size="682.415" lengthAdjust="spacingAndGlyphs"
text-anchor="start" opacity="0">3</text>
<path d="M53252 4050
L53569 4050
L53398 4245
L53471 4245
L53520 4269
L53544 4294
L53569 4342
L53569 4464
L53544 4513
L53520 4537
L53471 4562
L53325 4562
L53276 4537
L53252 4513
" />
</g>
<g style="fill:#000000; fill-opacity:0.0; 
stroke:#000000; stroke-width:39.3701; stroke-opacity:1; 
stroke-linecap:round; stroke-linejoin:round;">
</g>
<g style="fill:#000000; fill-opacity:0.0; 
stroke:#000000; stroke-width:59.0551; stroke-opacity:1; 
stroke-linecap:round; stroke-linejoin:round;">
<text x="72834.6" y="4586.61"
textLength="546.494" font-size="682.415" lengthAdjust="spacingAndGlyphs"
text-anchor="start" opacity="0">4</text>
<path d="M73205 4221
L73205 4562
" />
<path d="M73083 4026
L72961 4391
L73278 4391
" />
</g>
<g style="fill:#000000; fill-opacity:0.0; 
stroke:#000000; stroke-width:39.3701; stroke-opacity:1; 
stroke-linecap:round; stroke-linejoin:round;">
</g>
<g style="fill:#000000; fill-opacity:0.0; 
stroke:#000000; stroke-width:59.0551; stroke-opacity:1; 
stroke-linecap:round; stroke-linejoin:round;">
<text x="92519.7" y="4586.61"
textLength="546.494" font-size="682.415" lengthAdjust="spacingAndGlyphs"
text-anchor="start" opacity="0">5</text>
<path d="M92914 4050
L92671 4050
L92646 4294
L92671 4269
L92719 4245
L92841 4245
L92890 4269
L92914 4294
L92939 4342
L92939 4464
L92914 4513
L92890 4537
L92841 4562
L92719 4562
L92671 4537
L92646 4513
" />
</g>
<g style="fill:#000000; fill-opacity:0.0; 
stroke:#000000; stroke-width:39.3701; stroke-opacity:1; 
stroke-linecap:round; stroke-linejoin:round;">
</g>
<g style="fill:#000000; fill-opacity:0.0; 
stroke:#000000; stroke-width:59.0551; stroke-opacity:1; 
stroke-linecap:round; stroke-linejoin:round;">
<text x="112205" y="4586.61"
textLength="546.494" font-size="682.415" lengthAdjust="spacingAndGlyphs"
text-anchor="start" opacity="0">6</text>
<path d="M112575 4050
L112477 4050
L112429 4074
L112404 4099
L112356 4172
L112331 4269
L112331 4464
L112356 4513
L112380 4537
L112429 4562
L112526 4562
L112575 4537
L112599 4513
L112624 4464
L112624 4342
L112599 4294
L112575 4269
L112526 4245
L112429 4245
L112380 4269
L112356 4294
L112331 4342
" />
</g>
<g style="fill:#000000; fill-opacity:0.0; 
stroke:#000000; stroke-width:39.3701; stroke-opacity:1; 
stroke-linecap:round; stroke-linejoin:round;">
</g>
<g style="fill:#000000; fill-opacity:0.0; 
stroke:#000000; stroke-width:59.0551; stroke-opacity:1; 
stroke-linecap:round; stroke-linejoin:round;">
<path d="M23622 77955
L23622 78742
" />
</g>
<g style="fill:#000000; fill-opacity:0.0; 
stroke:#000000; stroke-width:39.3701; stroke-opacity:1; 
stroke-linecap:round; stroke-linejoin:round;">
</g>
<g style="fill:#000000; fill-opacity:0.0; 
stroke:#000000; stroke-width:59.0551; stroke-opacity:1; 
stroke-linecap:round; stroke-linejoin:round;">
<path d="M43307 77955
L43307 78742
" />
</g>
<g style="fill:#000000; fill-opacity:0.0; 
stroke:#000000; stroke-width:39.3701; stroke-opacity:1; 
stroke-linecap:round; stroke-linejoin:round;">
</g>
<g style="fill:#000000; fill-opacity:0.0; 
stroke:#000000; stroke-width:59.0551; stroke-opacity:1; 
stroke-linecap:round; stroke-linejoin:round;">
<path d="M62992 77955
L62992 78742
" />
</g>
<g style="fill:#000000; fill-opacity:0.0; 
stroke:#000000; stroke-width:39.3701; stroke-opacity:1; 
stroke-linecap:round; stroke-linejoin:round;">
</g>
<g style="fill:#000000; fill-opacity:0.0; 
stroke:#000000; stroke-width:59.0551; stroke-opacity:1; 
stroke-linecap:round; stroke-linejoin:round;">
<path d="M82677 77955
L82677 78742
" />
</g>
<g style="fill:#000000; fill-opacity:0.0; 
stroke:#000000; stroke-width:39.3701; stroke-opacity:1; 
stroke-linecap:round; stroke-linejoin:round;">
</g>
<g style="fill:#000000; fill-opacity:0.0; 
stroke:#000000; stroke-width:59.0551; stroke-opacity:1; 
stroke-linecap:round; stroke-linejoin:round;">
<path d="M102362 77955
L102362 78742
" />
</g>
<g style="fill:#000000; fill-opacity:0.0; 
stroke:#000000; stroke-width:39.3701; stroke-opacity:1; 
stroke-linecap:round; stroke-linejoin:round;">
</g>
<g style="fill:#000000; fill-opacity:0.0; 
stroke:#000000; stroke-width:59.0551; stroke-opacity:1; 
stroke-linecap:round; stroke-linejoin:round;">
<text x="13779.5" y="78605.2"
textLength="546.494" font-size="682.415" lengthAdjust="spacingAndGlyphs"
text-anchor="start" opacity="0">1</text>
<path d="M14199 78580
L13906 78580
" />
<path d="M14052 78580
L14052 78069
L14004 78142
L13955 78190
L13906 78215
" />
</g>
<g style="fill:#000000; fill-opacity:0.0; 
stroke:#000000; stroke-width:39.3701; stroke-opacity:1; 
stroke-linecap:round; stroke-linejoin:round;">
</g>
<g style="fill:#000000; fill-opacity:0.0; 
stroke:#000000; stroke-width:59.0551; stroke-opacity:1; 
stroke-linecap:round; stroke-linejoin:round;">
<text x="33464.6" y="78605.2"
textLength="546.494" font-size="682.415" lengthAdjust="spacingAndGlyphs"
text-anchor="start" opacity="0">2</text>
<path d="M33591 78117
L33615 78093
L33664 78069
L33786 78069
L33835 78093
L33859 78117
L33884 78166
L33884 78215
L33859 78288
L33567 78580
L33884 78580
" />
</g>
<g style="fill:#000000; fill-opacity:0.0; 
stroke:#000000; stroke-width:39.3701; stroke-opacity:1; 
stroke-linecap:round; stroke-linejoin:round;">
</g>
<g style="fill:#000000; fill-opacity:0.0; 
stroke:#000000; stroke-width:59.0551; stroke-opacity:1; 
stroke-linecap:round; stroke-linejoin:round;">
<text x="53149.6" y="78605.2"
textLength="546.494" font-size="682.415" lengthAdjust="spacingAndGlyphs"
text-anchor="start" opacity="0">3</text>
<path d="M53252 78069
L53569 78069
L53398 78263
L53471 78263
L53520 78288
L53544 78312
L53569 78361
L53569 78483
L53544 78532
L53520 78556
L53471 78580
L53325 78580
L53276 78556
L53252 78532
" />
</g>
<g style="fill:#000000; fill-opacity:0.0; 
stroke:#000000; stroke-width:39.3701; stroke-opacity:1; 
stroke-linecap:round; stroke-linejoin:round;">
</g>
<g style="fill:#000000; fill-opacity:0.0; 
stroke:#000000; stroke-width:59.0551; stroke-opacity:1; 
stroke-linecap:round; stroke-linejoin:round;">
<text x="72834.6" y="78605.2"
textLength="546.494" font-size="682.415" lengthAdjust="spacingAndGlyphs"
text-anchor="start" opacity="0">4</text>
<path d="M73205 78239
L73205 78580
" />
<path d="M73083 78044
L72961 78410
L73278 78410
" />
</g>
<g style="fill:#000000; fill-opacity:0.0; 
stroke:#000000; stroke-width:39.3701; stroke-opacity:1; 
stroke-linecap:round; stroke-linejoin:round;">
</g>
<g style="fill:#000000; fill-opacity:0.0; 
stroke:#000000; stroke-width:59.0551; stroke-opacity:1; 
stroke-linecap:round; stroke-linejoin:round;">
<text x="92519.7" y="78605.2"
textLength="546.494" font-size="682.415" lengthAdjust="spacingAndGlyphs"
text-anchor="start" opacity="0">5</text>
<path d="M92914 78069
L92671 78069
L92646 78312
L92671 78288
L92719 78263
L92841 78263
L92890 78288
L92914 78312
L92939 78361
L92939 78483
L92914 78532
L92890 78556
L92841 78580
L92719 78580
L92671 78556
L92646 78532
" />
</g>
<g style="fill:#000000; fill-opacity:0.0; 
stroke:#000000; stroke-width:39.3701; stroke-opacity:1; 
stroke-linecap:round; stroke-linejoin:round;">
</g>
<g style="fill:#000000; fill-opacity:0.0; 
stroke:#000000; stroke-width:59.0551; stroke-opacity:1; 
stroke-linecap:round; stroke-linejoin:round;">
<text x="112205" y="78605.2"
textLength="546.494" font-size="682.415" lengthAdjust="spacingAndGlyphs"
text-anchor="start" opacity="0">6</text>
<path d="M112575 78069
L112477 78069
L112429 78093
L112404 78117
L112356 78190
L112331 78288
L112331 78483
L112356 78532
L112380 78556
L112429 78580
L112526 78580
L112575 78556
L112599 78532
L112624 78483
L112624 78361
L112599 78312
L112575 78288
L112526 78263
L112429 78263
L112380 78288
L112356 78312
L112331 78361
" />
</g>
<g style="fill:#000000; fill-opacity:0.0; 
stroke:#000000; stroke-width:39.3701; stroke-opacity:1; 
stroke-linecap:round; stroke-linejoin:round;">
</g>
<g style="fill:#000000; fill-opacity:0.0; 
stroke:#000000; stroke-width:59.0551; stroke-opacity:1; 
stroke-linecap:round; stroke-linejoin:round;">
<path d="M3937 23622
L4724 23622
" />
</g>
<g style="fill:#000000; fill-opacity:0.0; 
stroke:#000000; stroke-width:39.3701; stroke-opacity:1; 
stroke-linecap:round; stroke-linejoin:round;">
</g>
<g style="fill:#000000; fill-opacity:0.0; 
stroke:#000000; stroke-width:59.0551; stroke-opacity:1; 
stroke-linecap:round; stroke-linejoin:round;">
<path d="M3937 43307
L4724 43307
" />
</g>
<g style="fill:#000000; fill-opacity:0.0; 
stroke:#000000; stroke-width:39.3701; stroke-opacity:1; 
stroke-linecap:round; stroke-linejoin:round;">
</g>
<g style="fill:#000000; fill-opacity:0.0; 
stroke:#000000; stroke-width:59.0551; stroke-opacity:1; 
stroke-linecap:round; stroke-linejoin:round;">
<path d="M3937 62992
L4724 62992
" />
</g>
<g style="fill:#000000; fill-opacity:0.0; 
stroke:#000000; stroke-width:39.3701; stroke-opacity:1; 
stroke-linecap:round; stroke-linejoin:round;">
</g>
<g style="fill:#000000; fill-opacity:0.0; 
stroke:#000000; stroke-width:59.0551; stroke-opacity:1; 
stroke-linecap:round; stroke-linejoin:round;">
<text x="4330.71" y="14035.4"
textLength="497.75" font-size="682.415" lengthAdjust="spacingAndGlyphs"
text-anchor="middle" opacity="0">A</text>
<path d="M4208 13864
L4452 13864
" />
<path d="M4160 14011
L4330 13499
L4501 14011
" />
</g>
<g style="fill:#000000; fill-opacity:0.0; 
stroke:#000000; stroke-width:39.3701; stroke-opacity:1; 
stroke-linecap:round; stroke-linejoin:round;">
</g>
<g style="fill:#000000; fill-opacity:0.0; 
stroke:#000000; stroke-width:59.0551; stroke-opacity:1; 
stroke-linecap:round; stroke-linejoin:round;">
<text x="4330.71" y="33720.5"
textLength="570.866" font-size="682.415" lengthAdjust="spacingAndGlyphs"
text-anchor="middle" opacity="0">B</text>
<path d="M4367 33428
L4440 33452
L4464 33476
L4489 33525
L4489 33598
L4464 33647
L4440 33671
L4391 33696
L4196 33696
L4196 33184
L4367 33184
L4416 33208
L4440 33233
L4464 33281
L4464 33330
L4440 33379
L4416 33403
L4367 33428
L4196 33428
" />
</g>
<g style="fill:#000000; fill-opacity:0.0; 
stroke:#000000; stroke-width:39.3701; stroke-opacity:1; 
stroke-linecap:round; stroke-linejoin:round;">
</g>
<g style="fill:#000000; fill-opacity:0.0; 
stroke:#000000; stroke-width:59.0551; stroke-opacity:1; 
stroke-linecap:round; stroke-linejoin:round;">
<text x="4330.71" y="53405.5"
textLength="570.866" font-size="682.415" lengthAdjust="spacingAndGlyphs"
text-anchor="middle" opacity="0">C</text>
<path d="M4489 53332
L4464 53356
L4391 53381
L4342 53381
L4269 53356
L4221 53308
L4196 53259
L4172 53161
L4172 53088
L4196 52991
L4221 52942
L4269 52893
L4342 52869
L4391 52869
L4464 52893
L4489 52918
" />
</g>
<g style="fill:#000000; fill-opacity:0.0; 
stroke:#000000; stroke-width:39.3701; stroke-opacity:1; 
stroke-linecap:round; stroke-linejoin:round;">
</g>
<g style="fill:#000000; fill-opacity:0.0; 
stroke:#000000; stroke-width:59.0551; stroke-opacity:1; 
stroke-linecap:round; stroke-linejoin:round;">
<text x="4330.71" y="73090.6"
textLength="570.866" font-size="682.415" lengthAdjust="spacingAndGlyphs"
text-anchor="middle" opacity="0">D</text>
<path d="M4196 73066
L4196 72554
L4318 72554
L4391 72578
L4440 72627
L4464 72676
L4489 72773
L4489 72846
L4464 72944
L4440 72993
L4391 73041
L4318 73066
L4196 73066
" />
</g>
<g style="fill:#000000; fill-opacity:0.0; 
stroke:#000000; stroke-width:39.3701; stroke-opacity:1; 
stroke-linecap:round; stroke-linejoin:round;">
</g>
<g style="fill:#000000; fill-opacity:0.0; 
stroke:#000000; stroke-width:59.0551; stroke-opacity:1; 
stroke-linecap:round; stroke-linejoin:round;">
<path d="M112992 23622
L112205 23622
" />
</g>
<g style="fill:#000000; fill-opacity:0.0; 
stroke:#000000; stroke-width:39.3701; stroke-opacity:1; 
stroke-linecap:round; stroke-linejoin:round;">
</g>
<g style="fill:#000000; fill-opacity:0.0; 
stroke:#000000; stroke-width:59.0551; stroke-opacity:1; 
stroke-linecap:round; stroke-linejoin:round;">
<path d="M112992 43307
L112205 43307
" />
</g>
<g style="fill:#000000; fill-opacity:0.0; 
stroke:#000000; stroke-width:39.3701; stroke-opacity:1; 
stroke-linecap:round; stroke-linejoin:round;">
</g>
<g style="fill:#000000; fill-opacity:0.0; 
stroke:#000000; stroke-width:59.0551; stroke-opacity:1; 
stroke-linecap:round; stroke-linejoin:round;">
<path d="M112992 62992
L112205 62992
" />
</g>
<g style="fill:#000000; fill-opacity:0.0; 
stroke:#000000; stroke-width:39.3701; stroke-opacity:1; 
stroke-linecap:round; stroke-linejoin:round;">
</g>
<g style="fill:#000000; fill-opacity:0.0; 
stroke:#000000; stroke-width:59.0551; stroke-opacity:1; 
stroke-linecap:round; stroke-linejoin:round;">
<text x="112599" y="14035.4"
textLength="497.75" font-size="682.415" lengthAdjust="spacingAndGlyphs"
text-anchor="middle" opacity="0">A</text>
<path d="M112477 13864
L112721 13864
" />
<path d="M112428 14011
L112599 13499
L112769 14011
" />
</g>
<g style="fill:#000000; fill-opacity:0.0; 
stroke:#000000; stroke-width:39.3701; stroke-opacity:1; 
stroke-linecap:round; stroke-linejoin:round;">
</g>
<g style="fill:#000000; fill-opacity:0.0; 
stroke:#000000; stroke-width:59.0551; stroke-opacity:1; 
stroke-linecap:round; stroke-linejoin:round;">
<text x="112599" y="33720.5"
textLength="570.866" font-size="682.415" lengthAdjust="spacingAndGlyphs"
text-anchor="middle" opacity="0">B</text>
<path d="M112635 33428
L112708 33452
L112733 33476
L112757 33525
L112757 33598
L112733 33647
L112708 33671
L112660 33696
L112465 33696
L112465 33184
L112635 33184
L112684 33208
L112708 33233
L112733 33281
L112733 33330
L112708 33379
L112684 33403
L112635 33428
L112465 33428
" />
</g>
<g style="fill:#000000; fill-opacity:0.0; 
stroke:#000000; stroke-width:39.3701; stroke-opacity:1; 
stroke-linecap:round; stroke-linejoin:round;">
</g>
<g style="fill:#000000; fill-opacity:0.0; 
stroke:#000000; stroke-width:59.0551; stroke-opacity:1; 
stroke-linecap:round; stroke-linejoin:round;">
<text x="112599" y="53405.5"
textLength="570.866" font-size="682.415" lengthAdjust="spacingAndGlyphs"
text-anchor="middle" opacity="0">C</text>
<path d="M112757 53332
L112733 53356
L112660 53381
L112611 53381
L112538 53356
L112489 53308
L112465 53259
L112440 53161
L112440 53088
L112465 52991
L112489 52942
L112538 52893
L112611 52869
L112660 52869
L112733 52893
L112757 52918
" />
</g>
<g style="fill:#000000; fill-opacity:0.0; 
stroke:#000000; stroke-width:39.3701; stroke-opacity:1; 
stroke-linecap:round; stroke-linejoin:round;">
</g>
<g style="fill:#000000; fill-opacity:0.0; 
stroke:#000000; stroke-width:59.0551; stroke-opacity:1; 
stroke-linecap:round; stroke-linejoin:round;">
<text x="112599" y="73090.6"
textLength="570.866" font-size="682.415" lengthAdjust="spacingAndGlyphs"
text-anchor="middle" opacity="0">D</text>
<path d="M112465 73066
L112465 72554
L112587 72554
L112660 72578
L112708 72627
L112733 72676
L112757 72773
L112757 72846
L112733 72944
L112708 72993
L112660 73041
L112587 73066
L112465 73066
" />
</g>
<g style="fill:#000000; fill-opacity:0.0; 
stroke:#000000; stroke-width:39.3701; stroke-opacity:1; 
stroke-linecap:round; stroke-linejoin:round;">
</g>
<g style="fill:#000000; fill-opacity:0.0; 
stroke:#000000; stroke-width:59.0551; stroke-opacity:1; 
stroke-linecap:round; stroke-linejoin:round;">
<text x="78741" y="76321.7"
textLength="2758.72" font-size="787.402" lengthAdjust="spacingAndGlyphs"
text-anchor="start" opacity="0">Date: </text>
<path d="M78911 76293
L78911 75703
L79051 75703
L79136 75731
L79192 75787
L79220 75843
L79248 75956
L79248 76040
L79220 76153
L79192 76209
L79136 76265
L79051 76293
L78911 76293
" />
<path d="M79754 76293
L79754 75984
L79726 75928
L79670 75899
L79557 75899
L79501 75928
" />
<path d="M79754 76265
L79698 76293
L79557 76293
L79501 76265
L79473 76209
L79473 76153
L79501 76096
L79557 76068
L79698 76068
L79754 76040
" />
<path d="M79951 75899
L80176 75899
" />
<path d="M80036 75703
L80036 76209
L80064 76265
L80120 76293
L80176 76293
" />
<path d="M80598 76265
L80542 76293
L80429 76293
L80373 76265
L80345 76209
L80345 75984
L80373 75928
L80429 75899
L80542 75899
L80598 75928
L80626 75984
L80626 76040
L80345 76096
" />
<path d="M80879 76237
L80907 76265
L80879 76293
L80851 76265
L80879 76237
L80879 76293
" />
<path d="M80879 75928
L80907 75956
L80879 75984
L80851 75956
L80879 75928
L80879 75984
" />
</g>
<g style="fill:#000000; fill-opacity:0.0; 
stroke:#000000; stroke-width:39.3701; stroke-opacity:1; 
stroke-linecap:round; stroke-linejoin:round;">
</g>
<g style="fill:#000000; fill-opacity:0.0; 
stroke:#000000; stroke-width:59.0551; stroke-opacity:1; 
stroke-linecap:round; stroke-linejoin:round;">
<path d="M69685 76577
L112205 76577
" />
</g>
<g style="fill:#000000; fill-opacity:0.0; 
stroke:#000000; stroke-width:39.3701; stroke-opacity:1; 
stroke-linecap:round; stroke-linejoin:round;">
</g>
<g style="fill:#000000; fill-opacity:0.0; 
stroke:#000000; stroke-width:59.0551; stroke-opacity:1; 
stroke-linecap:round; stroke-linejoin:round;">
<text x="70079.6" y="77424.1"
textLength="13529.2" font-size="787.402" lengthAdjust="spacingAndGlyphs"
text-anchor="start" opacity="0">KiCad E.D.A.  kicad (5.1.8)-1</text>
<path d="M70249 77395
L70249 76805
" />
<path d="M70587 77395
L70334 77058
" />
<path d="M70587 76805
L70249 77142
" />
<path d="M70840 77395
L70840 77002
" />
<path d="M70840 76805
L70812 76833
L70840 76861
L70868 76833
L70840 76805
L70840 76861
" />
<path d="M71458 77339
L71430 77367
L71346 77395
L71290 77395
L71205 77367
L71149 77311
L71121 77255
L71093 77142
L71093 77058
L71121 76946
L71149 76889
L71205 76833
L71290 76805
L71346 76805
L71430 76833
L71458 76861
" />
<path d="M71965 77395
L71965 77086
L71937 77030
L71880 77002
L71768 77002
L71712 77030
" />
<path d="M71965 77367
L71908 77395
L71768 77395
L71712 77367
L71683 77311
L71683 77255
L71712 77199
L71768 77171
L71908 77171
L71965 77142
" />
<path d="M72499 77395
L72499 76805
" />
<path d="M72499 77367
L72443 77395
L72330 77395
L72274 77367
L72246 77339
L72218 77283
L72218 77114
L72246 77058
L72274 77030
L72330 77002
L72443 77002
L72499 77030
" />
<path d="M73230 77086
L73427 77086
" />
<path d="M73511 77395
L73230 77395
L73230 76805
L73511 76805
" />
<path d="M73764 77339
L73793 77367
L73764 77395
L73736 77367
L73764 77339
L73764 77395
" />
<path d="M74046 77395
L74046 76805
L74186 76805
L74271 76833
L74327 76889
L74355 76946
L74383 77058
L74383 77142
L74355 77255
L74327 77311
L74271 77367
L74186 77395
L74046 77395
" />
<path d="M74636 77339
L74664 77367
L74636 77395
L74608 77367
L74636 77339
L74636 77395
" />
<path d="M74889 77227
L75171 77227
" />
<path d="M74833 77395
L75030 76805
L75227 77395
" />
<path d="M75424 77339
L75452 77367
L75424 77395
L75395 77367
L75424 77339
L75424 77395
" />
<path d="M76605 77395
L76605 76805
" />
<path d="M76661 77171
L76830 77395
" />
<path d="M76830 77002
L76605 77227
" />
<path d="M77083 77395
L77083 77002
" />
<path d="M77083 76805
L77055 76833
L77083 76861
L77111 76833
L77083 76805
L77083 76861
" />
<path d="M77617 77367
L77561 77395
L77448 77395
L77392 77367
L77364 77339
L77336 77283
L77336 77114
L77364 77058
L77392 77030
L77448 77002
L77561 77002
L77617 77030
" />
<path d="M78123 77395
L78123 77086
L78095 77030
L78039 77002
L77926 77002
L77870 77030
" />
<path d="M78123 77367
L78067 77395
L77926 77395
L77870 77367
L77842 77311
L77842 77255
L77870 77199
L77926 77171
L78067 77171
L78123 77142
" />
<path d="M78658 77395
L78658 76805
" />
<path d="M78658 77367
L78601 77395
L78489 77395
L78433 77367
L78404 77339
L78376 77283
L78376 77114
L78404 77058
L78433 77030
L78489 77002
L78601 77002
L78658 77030
" />
<path d="M79557 77620
L79529 77592
L79473 77508
L79445 77452
L79417 77367
L79389 77227
L79389 77114
L79417 76974
L79445 76889
L79473 76833
L79529 76749
L79557 76721
" />
<path d="M80064 76805
L79782 76805
L79754 77086
L79782 77058
L79839 77030
L79979 77030
L80036 77058
L80064 77086
L80092 77142
L80092 77283
L80064 77339
L80036 77367
L79979 77395
L79839 77395
L79782 77367
L79754 77339
" />
<path d="M80345 77339
L80373 77367
L80345 77395
L80317 77367
L80345 77339
L80345 77395
" />
<path d="M80935 77395
L80598 77395
" />
<path d="M80767 77395
L80767 76805
L80710 76889
L80654 76946
L80598 76974
" />
<path d="M81188 77339
L81217 77367
L81188 77395
L81160 77367
L81188 77339
L81188 77395
" />
<path d="M81554 77058
L81498 77030
L81470 77002
L81442 76946
L81442 76917
L81470 76861
L81498 76833
L81554 76805
L81667 76805
L81723 76833
L81751 76861
L81779 76917
L81779 76946
L81751 77002
L81723 77030
L81667 77058
L81554 77058
L81498 77086
L81470 77114
L81442 77171
L81442 77283
L81470 77339
L81498 77367
L81554 77395
L81667 77395
L81723 77367
L81751 77339
L81779 77283
L81779 77171
L81751 77114
L81723 77086
L81667 77058
" />
<path d="M81976 77620
L82004 77592
L82060 77508
L82088 77452
L82117 77367
L82145 77227
L82145 77114
L82117 76974
L82088 76889
L82060 76833
L82004 76749
L81976 76721
" />
<path d="M82426 77171
L82876 77171
" />
<path d="M83466 77395
L83129 77395
" />
<path d="M83298 77395
L83298 76805
L83241 76889
L83185 76946
L83129 76974
" />
</g>
<g style="fill:#000000; fill-opacity:0.0; 
stroke:#000000; stroke-width:39.3701; stroke-opacity:1; 
stroke-linecap:round; stroke-linejoin:round;">
</g>
<g style="fill:#000000; fill-opacity:0.0; 
stroke:#000000; stroke-width:59.0551; stroke-opacity:1; 
stroke-linecap:round; stroke-linejoin:round;">
<path d="M69685 75396
L112205 75396
" />
</g>
<g style="fill:#000000; fill-opacity:0.0; 
stroke:#000000; stroke-width:39.3701; stroke-opacity:1; 
stroke-linecap:round; stroke-linejoin:round;">
</g>
<g style="fill:#000000; fill-opacity:0.0; 
stroke:#000000; stroke-width:118.11; stroke-opacity:1; 
stroke-linecap:round; stroke-linejoin:round;">
<text x="103544" y="76321.7"
textLength="2336.9" font-size="787.402" lengthAdjust="spacingAndGlyphs"
text-anchor="start" opacity="0">Rev: </text>
<path d="M104099 76293
L103902 76012
" />
<path d="M103761 76293
L103761 75703
L103986 75703
L104042 75731
L104070 75759
L104099 75815
L104099 75899
L104070 75956
L104042 75984
L103986 76012
L103761 76012
" />
<path d="M104577 76265
L104520 76293
L104408 76293
L104352 76265
L104323 76209
L104323 75984
L104352 75928
L104408 75899
L104520 75899
L104577 75928
L104605 75984
L104605 76040
L104323 76096
" />
<path d="M104802 75899
L104942 76293
L105083 75899
" />
<path d="M105308 76237
L105336 76265
L105308 76293
L105280 76265
L105308 76237
L105308 76293
" />
<path d="M105308 75928
L105336 75956
L105308 75984
L105280 75956
L105308 75928
L105308 75984
" />
</g>
<g style="fill:#000000; fill-opacity:0.0; 
stroke:#000000; stroke-width:39.3701; stroke-opacity:1; 
stroke-linecap:round; stroke-linejoin:round;">
</g>
<g style="fill:#000000; fill-opacity:0.0; 
stroke:#000000; stroke-width:59.0551; stroke-opacity:1; 
stroke-linecap:round; stroke-linejoin:round;">
<text x="70079.6" y="76321.7"
textLength="3781.21" font-size="787.402" lengthAdjust="spacingAndGlyphs"
text-anchor="start" opacity="0">Size: A4</text>
<path d="M70221 76265
L70305 76293
L70446 76293
L70502 76265
L70530 76237
L70559 76181
L70559 76124
L70530 76068
L70502 76040
L70446 76012
L70334 75984
L70277 75956
L70249 75928
L70221 75871
L70221 75815
L70249 75759
L70277 75731
L70334 75703
L70474 75703
L70559 75731
" />
<path d="M70812 76293
L70812 75899
" />
<path d="M70812 75703
L70784 75731
L70812 75759
L70840 75731
L70812 75703
L70812 75759
" />
<path d="M71037 75899
L71346 75899
L71037 76293
L71346 76293
" />
<path d="M71796 76265
L71740 76293
L71627 76293
L71571 76265
L71543 76209
L71543 75984
L71571 75928
L71627 75899
L71740 75899
L71796 75928
L71824 75984
L71824 76040
L71543 76096
" />
<path d="M72077 76237
L72105 76265
L72077 76293
L72049 76265
L72077 76237
L72077 76293
" />
<path d="M72077 75928
L72105 75956
L72077 75984
L72049 75956
L72077 75928
L72077 75984
" />
<path d="M72780 76124
L73061 76124
" />
<path d="M72724 76293
L72921 75703
L73118 76293
" />
<path d="M73568 75899
L73568 76293
" />
<path d="M73427 75674
L73286 76096
L73652 76096
" />
</g>
<g style="fill:#000000; fill-opacity:0.0; 
stroke:#000000; stroke-width:39.3701; stroke-opacity:1; 
stroke-linecap:round; stroke-linejoin:round;">
</g>
<g style="fill:#000000; fill-opacity:0.0; 
stroke:#000000; stroke-width:59.0551; stroke-opacity:1; 
stroke-linecap:round; stroke-linejoin:round;">
<text x="103544" y="77424.1"
textLength="3349.27" font-size="787.402" lengthAdjust="spacingAndGlyphs"
text-anchor="start" opacity="0">Id: 1/1</text>
<path d="M103714 77395
L103714 76805
" />
<path d="M104248 77395
L104248 76805
" />
<path d="M104248 77367
L104192 77395
L104079 77395
L104023 77367
L103995 77339
L103967 77283
L103967 77114
L103995 77058
L104023 77030
L104079 77002
L104192 77002
L104248 77030
" />
<path d="M104529 77339
L104557 77367
L104529 77395
L104501 77367
L104529 77339
L104529 77395
" />
<path d="M104529 77030
L104557 77058
L104529 77086
L104501 77058
L104529 77030
L104529 77086
" />
<path d="M105570 77395
L105232 77395
" />
<path d="M105401 77395
L105401 76805
L105345 76889
L105289 76946
L105232 76974
" />
<path d="M106245 76777
L105739 77536
" />
<path d="M106751 77395
L106413 77395
" />
<path d="M106582 77395
L106582 76805
L106526 76889
L106470 76946
L106413 76974
" />
</g>
<g style="fill:#000000; fill-opacity:0.0; 
stroke:#000000; stroke-width:39.3701; stroke-opacity:1; 
stroke-linecap:round; stroke-linejoin:round;">
</g>
<g style="fill:#000000; fill-opacity:0.0; 
stroke:#000000; stroke-width:59.0551; stroke-opacity:1; 
stroke-linecap:round; stroke-linejoin:round;">
<path d="M69685 73821
L112205 73821
" />
</g>
<g style="fill:#000000; fill-opacity:0.0; 
stroke:#000000; stroke-width:39.3701; stroke-opacity:1; 
stroke-linecap:round; stroke-linejoin:round;">
</g>
<g style="fill:#000000; fill-opacity:0.0; 
stroke:#000000; stroke-width:157.48; stroke-opacity:1; 
stroke-linecap:round; stroke-linejoin:round;">
<text x="70079.6" y="74924.1"
textLength="3701.14" font-size="1049.87" lengthAdjust="spacingAndGlyphs"
text-anchor="start" opacity="0">Title: </text>
<path d="M70360 74099
L70810 74099
" />
<path d="M70486 74886
L70585 74099
" />
<path d="M70974 74886
L71039 74361
" />
<path d="M71072 74099
L71030 74136
L71063 74174
L71105 74136
L71072 74099
L71063 74174
" />
<path d="M71302 74361
L71602 74361
" />
<path d="M71447 74099
L71363 74774
L71391 74849
L71461 74886
L71536 74886
" />
<path d="M71911 74886
L71841 74849
L71813 74774
L71897 74099
" />
<path d="M72516 74849
L72436 74886
L72286 74886
L72216 74849
L72187 74774
L72225 74474
L72272 74399
L72352 74361
L72501 74361
L72572 74399
L72600 74474
L72591 74549
L72206 74624
" />
<path d="M72895 74811
L72928 74849
L72886 74886
L72853 74849
L72895 74811
L72886 74886
" />
<path d="M72947 74399
L72980 74436
L72937 74474
L72905 74436
L72947 74399
L72937 74474
" />
</g>
<g style="fill:#000000; fill-opacity:0.0; 
stroke:#000000; stroke-width:39.3701; stroke-opacity:1; 
stroke-linecap:round; stroke-linejoin:round;">
</g>
<g style="fill:#000000; fill-opacity:0.0; 
stroke:#000000; stroke-width:59.0551; stroke-opacity:1; 
stroke-linecap:round; stroke-linejoin:round;">
<text x="70079.6" y="73408.3"
textLength="16824.5" font-size="787.402" lengthAdjust="spacingAndGlyphs"
text-anchor="start" opacity="0">File: Single_transistor_AMP.kicad_pcb</text>
<path d="M70446 73070
L70249 73070
" />
<path d="M70249 73380
L70249 72789
L70530 72789
" />
<path d="M70755 73380
L70755 72986
" />
<path d="M70755 72789
L70727 72817
L70755 72845
L70784 72817
L70755 72789
L70755 72845
" />
<path d="M71121 73380
L71065 73352
L71037 73295
L71037 72789
" />
<path d="M71571 73352
L71515 73380
L71402 73380
L71346 73352
L71318 73295
L71318 73070
L71346 73014
L71402 72986
L71515 72986
L71571 73014
L71599 73070
L71599 73127
L71318 73183
" />
<path d="M71852 73323
L71880 73352
L71852 73380
L71824 73352
L71852 73323
L71852 73380
" />
<path d="M71852 73014
L71880 73042
L71852 73070
L71824 73042
L71852 73014
L71852 73070
" />
<path d="M72555 73352
L72640 73380
L72780 73380
L72836 73352
L72865 73323
L72893 73267
L72893 73211
L72865 73155
L72836 73127
L72780 73099
L72668 73070
L72611 73042
L72583 73014
L72555 72958
L72555 72902
L72583 72845
L72611 72817
L72668 72789
L72808 72789
L72893 72817
" />
<path d="M73146 73380
L73146 72986
" />
<path d="M73146 72789
L73118 72817
L73146 72845
L73174 72817
L73146 72789
L73146 72845
" />
<path d="M73427 72986
L73427 73380
" />
<path d="M73427 73042
L73455 73014
L73511 72986
L73596 72986
L73652 73014
L73680 73070
L73680 73380
" />
<path d="M74214 72986
L74214 73464
L74186 73520
L74158 73548
L74102 73577
L74018 73577
L73961 73548
" />
<path d="M74214 73352
L74158 73380
L74046 73380
L73989 73352
L73961 73323
L73933 73267
L73933 73099
L73961 73042
L73989 73014
L74046 72986
L74158 72986
L74214 73014
" />
<path d="M74580 73380
L74524 73352
L74496 73295
L74496 72789
" />
<path d="M75030 73352
L74974 73380
L74861 73380
L74805 73352
L74777 73295
L74777 73070
L74805 73014
L74861 72986
L74974 72986
L75030 73014
L75058 73070
L75058 73127
L74777 73183
" />
<path d="M75171 73436
L75620 73436
" />
<path d="M75677 72986
L75902 72986
" />
<path d="M75761 72789
L75761 73295
L75789 73352
L75845 73380
L75902 73380
" />
<path d="M76099 73380
L76099 72986
" />
<path d="M76099 73099
L76127 73042
L76155 73014
L76211 72986
L76267 72986
" />
<path d="M76717 73380
L76717 73070
L76689 73014
L76633 72986
L76520 72986
L76464 73014
" />
<path d="M76717 73352
L76661 73380
L76520 73380
L76464 73352
L76436 73295
L76436 73239
L76464 73183
L76520 73155
L76661 73155
L76717 73127
" />
<path d="M76998 72986
L76998 73380
" />
<path d="M76998 73042
L77027 73014
L77083 72986
L77167 72986
L77223 73014
L77251 73070
L77251 73380
" />
<path d="M77505 73352
L77561 73380
L77673 73380
L77730 73352
L77758 73295
L77758 73267
L77730 73211
L77673 73183
L77589 73183
L77533 73155
L77505 73099
L77505 73070
L77533 73014
L77589 72986
L77673 72986
L77730 73014
" />
<path d="M78011 73380
L78011 72986
" />
<path d="M78011 72789
L77983 72817
L78011 72845
L78039 72817
L78011 72789
L78011 72845
" />
<path d="M78264 73352
L78320 73380
L78433 73380
L78489 73352
L78517 73295
L78517 73267
L78489 73211
L78433 73183
L78348 73183
L78292 73155
L78264 73099
L78264 73070
L78292 73014
L78348 72986
L78433 72986
L78489 73014
" />
<path d="M78686 72986
L78911 72986
" />
<path d="M78770 72789
L78770 73295
L78798 73352
L78854 73380
L78911 73380
" />
<path d="M79192 73380
L79136 73352
L79108 73323
L79079 73267
L79079 73099
L79108 73042
L79136 73014
L79192 72986
L79276 72986
L79332 73014
L79361 73042
L79389 73099
L79389 73267
L79361 73323
L79332 73352
L79276 73380
L79192 73380
" />
<path d="M79642 73380
L79642 72986
" />
<path d="M79642 73099
L79670 73042
L79698 73014
L79754 72986
L79811 72986
" />
<path d="M79867 73436
L80317 73436
" />
<path d="M80429 73211
L80710 73211
" />
<path d="M80373 73380
L80570 72789
L80767 73380
" />
<path d="M80964 73380
L80964 72789
L81160 73211
L81357 72789
L81357 73380
" />
<path d="M81638 73380
L81638 72789
L81863 72789
L81920 72817
L81948 72845
L81976 72902
L81976 72986
L81948 73042
L81920 73070
L81863 73099
L81638 73099
" />
<path d="M82229 73323
L82257 73352
L82229 73380
L82201 73352
L82229 73323
L82229 73380
" />
<path d="M82510 73380
L82510 72789
" />
<path d="M82566 73155
L82735 73380
" />
<path d="M82735 72986
L82510 73211
" />
<path d="M82988 73380
L82988 72986
" />
<path d="M82988 72789
L82960 72817
L82988 72845
L83016 72817
L82988 72789
L82988 72845
" />
<path d="M83523 73352
L83466 73380
L83354 73380
L83298 73352
L83269 73323
L83241 73267
L83241 73099
L83269 73042
L83298 73014
L83354 72986
L83466 72986
L83523 73014
" />
<path d="M84029 73380
L84029 73070
L84001 73014
L83944 72986
L83832 72986
L83776 73014
" />
<path d="M84029 73352
L83973 73380
L83832 73380
L83776 73352
L83748 73295
L83748 73239
L83776 73183
L83832 73155
L83973 73155
L84029 73127
" />
<path d="M84563 73380
L84563 72789
" />
<path d="M84563 73352
L84507 73380
L84394 73380
L84338 73352
L84310 73323
L84282 73267
L84282 73099
L84310 73042
L84338 73014
L84394 72986
L84507 72986
L84563 73014
" />
<path d="M84704 73436
L85154 73436
" />
<path d="M85294 72986
L85294 73577
" />
<path d="M85294 73014
L85350 72986
L85463 72986
L85519 73014
L85547 73042
L85575 73099
L85575 73267
L85547 73323
L85519 73352
L85463 73380
L85350 73380
L85294 73352
" />
<path d="M86082 73352
L86025 73380
L85913 73380
L85857 73352
L85829 73323
L85800 73267
L85800 73099
L85829 73042
L85857 73014
L85913 72986
L86025 72986
L86082 73014
" />
<path d="M86335 73380
L86335 72789
" />
<path d="M86335 73014
L86391 72986
L86503 72986
L86560 73014
L86588 73042
L86616 73099
L86616 73267
L86588 73323
L86560 73352
L86503 73380
L86391 73380
L86335 73352
" />
</g>
<g style="fill:#000000; fill-opacity:0.0; 
stroke:#000000; stroke-width:39.3701; stroke-opacity:1; 
stroke-linecap:round; stroke-linejoin:round;">
</g>
<g style="fill:#000000; fill-opacity:0.0; 
stroke:#000000; stroke-width:59.0551; stroke-opacity:1; 
stroke-linecap:round; stroke-linejoin:round;">
<path d="M69685 71459
L112205 71459
" />
</g>
<g style="fill:#000000; fill-opacity:0.0; 
stroke:#000000; stroke-width:39.3701; stroke-opacity:1; 
stroke-linecap:round; stroke-linejoin:round;">
</g>
<g style="fill:#000000; fill-opacity:0.0; 
stroke:#000000; stroke-width:59.0551; stroke-opacity:1; 
stroke-linecap:round; stroke-linejoin:round;">
<text x="70079.6" y="72345.4"
textLength="3236.78" font-size="787.402" lengthAdjust="spacingAndGlyphs"
text-anchor="start" opacity="0">Sheet: </text>
<path d="M70221 72289
L70305 72317
L70446 72317
L70502 72289
L70530 72260
L70559 72204
L70559 72148
L70530 72092
L70502 72064
L70446 72036
L70334 72007
L70277 71979
L70249 71951
L70221 71895
L70221 71839
L70249 71782
L70277 71754
L70334 71726
L70474 71726
L70559 71754
" />
<path d="M70812 72317
L70812 71726
" />
<path d="M71065 72317
L71065 72007
L71037 71951
L70980 71923
L70896 71923
L70840 71951
L70812 71979
" />
<path d="M71571 72289
L71515 72317
L71402 72317
L71346 72289
L71318 72232
L71318 72007
L71346 71951
L71402 71923
L71515 71923
L71571 71951
L71599 72007
L71599 72064
L71318 72120
" />
<path d="M72077 72289
L72021 72317
L71908 72317
L71852 72289
L71824 72232
L71824 72007
L71852 71951
L71908 71923
L72021 71923
L72077 71951
L72105 72007
L72105 72064
L71824 72120
" />
<path d="M72274 71923
L72499 71923
" />
<path d="M72358 71726
L72358 72232
L72386 72289
L72443 72317
L72499 72317
" />
<path d="M72696 72260
L72724 72289
L72696 72317
L72668 72289
L72696 72260
L72696 72317
" />
<path d="M72696 71951
L72724 71979
L72696 72007
L72668 71979
L72696 71951
L72696 72007
" />
</g>
<g style="fill:#000000; fill-opacity:0.0; 
stroke:#000000; stroke-width:39.3701; stroke-opacity:1; 
stroke-linecap:round; stroke-linejoin:round;">
</g>
<g style="fill:#000000; fill-opacity:0.0; 
stroke:#000000; stroke-width:59.0551; stroke-opacity:1; 
stroke-linecap:round; stroke-linejoin:round;">
<path d="M77559 75396
L77559 76577
" />
</g>
<g style="fill:#000000; fill-opacity:0.0; 
stroke:#000000; stroke-width:39.3701; stroke-opacity:1; 
stroke-linecap:round; stroke-linejoin:round;">
</g>
<g style="fill:#000000; fill-opacity:0.0; 
stroke:#000000; stroke-width:59.0551; stroke-opacity:1; 
stroke-linecap:round; stroke-linejoin:round;">
<path d="M102756 75396
L102756 77955
" />
</g>
<g style="fill:#848484; fill-opacity:0.0; 
stroke:#848484; stroke-width:59.0551; stroke-opacity:1; 
stroke-linecap:round; stroke-linejoin:round;">
</g>
<g style="fill:#848484; fill-opacity:0.0; 
stroke:#848484; stroke-width:39.3701; stroke-opacity:1; 
stroke-linecap:round; stroke-linejoin:round;">
<circle cx="43400" cy="27006.3" r="984.252" /> 
<circle cx="48000" cy="27006.3" r="984.252" /> 
<path d="M39698 25922
L39698 27225
" />
<path d="M39698 25773
L39698 25922
" />
<path d="M39698 27375
L39698 27225
" />
<path d="M39851 27225
L39851 25922
" />
<path d="M39851 27596
L39851 27225
" />
<path d="M39851 25253
L39851 25922
" />
<path d="M39851 23954
L39851 25253
" />
<path d="M39851 23584
L39851 23954
" />
<path d="M39698 25253
L39698 23954
" />
<path d="M39698 25403
L39698 25253
" />
<path d="M39698 23804
L39698 23954
" />
<path d="M41300 24013
L41548 25214
" />
<path d="M41351 23962
L41600 25166
" />
<path d="M41300 25985
L41548 27182
" />
<path d="M41351 25934
L41600 27135
" />
<path d="M41950 25403
L41950 23804
" />
<path d="M40950 23804
L41950 23804
" />
<path d="M40950 25403
L40950 23804
" />
<path d="M40950 25403
L41950 25403
" />
<path d="M40950 27375
L40950 25773
" />
<path d="M41950 27375
L40950 27375
" />
<path d="M41950 25773
L41950 27375
" />
<path d="M40950 25773
L41950 25773
" />
<path d="M40848 27596
L40249 27596
" />
<path d="M40848 23584
L42048 23584
" />
<path d="M40848 23584
L40848 27596
" />
<path d="M39851 27596
L38001 27596
" />
<path d="M40249 27596
L39851 27596
" />
<path d="M39851 23584
L40848 23584
" />
<path d="M37151 23584
L39851 23584
" />
<path d="M39399 27225
L39399 27072
" />
<path d="M39399 25922
L39399 26072
" />
<path d="M39399 25253
L39399 25103
" />
<path d="M39399 23954
L39399 24103
" />
<path d="M38151 23954
L39399 23954
" />
<path d="M38151 25253
L38151 23954
" />
<path d="M38151 25253
L39399 25253
" />
<path d="M38151 25922
L39399 25922
" />
<path d="M38151 27225
L38151 25922
" />
<path d="M38151 27225
L39399 27225
" />
<path d="M37899 23804
L37151 23804
" />
<path d="M37899 25403
L39698 25403
" />
<path d="M37899 25403
L37899 23804
" />
<path d="M37899 27375
L37151 27375
" />
<path d="M37899 25773
L39698 25773
" />
<path d="M37899 25773
L37899 27375
" />
<path d="M37151 23804
L37151 25403
" />
<path d="M37151 23584
L37151 23804
" />
<path d="M39698 23804
L37899 23804
" />
<path d="M37151 25403
L37151 25773
" />
<path d="M37151 25403
L37899 25403
" />
<path d="M37151 27375
L37151 27596
" />
<path d="M37151 25773
L37151 27375
" />
<path d="M39698 27375
L37899 27375
" />
<path d="M37151 25773
L37899 25773
" />
<path d="M38100 27792
L37450 27792
" />
<path d="M38001 27596
L37548 27596
" />
<path d="M38100 27792
L38001 27596
" />
<path d="M37548 27596
L37151 27596
" />
<path d="M37450 27792
L37548 27596
" />
<path d="M40151 27792
L40249 27596
" />
<path d="M42048 27792
L40151 27792
" />
<path d="M42048 27596
L42048 27792
" />
<path d="M42048 27596
L42048 23584
" />
<path d="M42048 27596
L40848 27596
" />
<path d="M38600 26072
L39698 26072
" />
<path d="M39698 26072
L39698 27072
" />
<path d="M38600 27072
L39698 27072
" />
<path d="M38600 26072
L38600 27072
" />
<path d="M38600 24103
L39698 24103
" />
<path d="M39698 24103
L39698 25103
" />
<path d="M38600 25103
L39698 25103
" />
<path d="M38600 24103
L38600 25103
" />
<path d="M41204.7 27153.4 A270.395 270.395 0.0 0 0 41588.2 27174.8" />
<path d="M41241 25996.7 A959.056 959.056 0.0 0 0 41222 27170.9" />
<path d="M41592.8 27174.1 A809.158 809.158 0.0 0 0 41568.5 25934.6" />
<path d="M41591.6 25953.2 A234.409 234.409 0.0 0 0 41226 26009.4" />
<path d="M41208.7 25184.9 A267.485 267.485 0.0 0 0 41588.2 25202.4" />
<path d="M41237.2 24025.3 A961.42 961.42 0.0 0 0 41222 25202.4" />
<path d="M41596.7 25206.3 A812.227 812.227 0.0 0 0 41568.5 23962.2" />
<path d="M41591.6 23984.7 A234.409 234.409 0.0 0 0 41226 24040.9" />
<path d="M52800 27253
L52800 26253
" />
<path d="M52800 26253
L51701 26253
" />
<path d="M51701 27253
L51701 26253
" />
<path d="M52800 27253
L51701 27253
" />
<path d="M52800 25284
L52800 24284
" />
<path d="M52800 24284
L51701 24284
" />
<path d="M51701 25284
L51701 24284
" />
<path d="M52800 25284
L51701 25284
" />
<path d="M49351 23761
L50551 23761
" />
<path d="M49351 23761
L49351 27772
" />
<path d="M49351 23761
L49351 23564
" />
<path d="M49351 23564
L51248 23564
" />
<path d="M51248 23564
L51150 23761
" />
<path d="M53949 23564
L53851 23761
" />
<path d="M53851 23761
L54248 23761
" />
<path d="M53300 23564
L53398 23761
" />
<path d="M53398 23761
L53851 23761
" />
<path d="M53300 23564
L53949 23564
" />
<path d="M54248 25583
L53500 25583
" />
<path d="M51701 23981
L53500 23981
" />
<path d="M54248 25583
L54248 23981
" />
<path d="M54248 23981
L54248 23761
" />
<path d="M54248 25953
L53500 25953
" />
<path d="M54248 25953
L54248 25583
" />
<path d="M51701 27552
L53500 27552
" />
<path d="M54248 27772
L54248 27552
" />
<path d="M54248 27552
L54248 25953
" />
<path d="M53500 25583
L53500 23981
" />
<path d="M53500 25583
L51701 25583
" />
<path d="M53500 23981
L54248 23981
" />
<path d="M53500 25953
L53500 27552
" />
<path d="M53500 25953
L51701 25953
" />
<path d="M53500 27552
L54248 27552
" />
<path d="M53248 24131
L52000 24131
" />
<path d="M53248 24131
L53248 25434
" />
<path d="M53248 25434
L52000 25434
" />
<path d="M53248 26103
L52000 26103
" />
<path d="M53248 26103
L53248 27402
" />
<path d="M53248 27402
L52000 27402
" />
<path d="M52000 27402
L52000 27253
" />
<path d="M52000 26103
L52000 26253
" />
<path d="M52000 25434
L52000 25284
" />
<path d="M52000 24131
L52000 24284
" />
<path d="M54248 27772
L51548 27772
" />
<path d="M51548 27772
L50551 27772
" />
<path d="M51150 23761
L51548 23761
" />
<path d="M51548 23761
L53398 23761
" />
<path d="M50551 27772
L50551 23761
" />
<path d="M50551 27772
L49351 27772
" />
<path d="M50551 23761
L51150 23761
" />
<path d="M50449 25583
L49449 25583
" />
<path d="M49449 25583
L49449 23981
" />
<path d="M49449 23981
L50449 23981
" />
<path d="M50449 23981
L50449 25583
" />
<path d="M50449 25953
L49449 25953
" />
<path d="M50449 25953
L50449 27552
" />
<path d="M50449 27552
L49449 27552
" />
<path d="M49449 25953
L49449 27552
" />
<path d="M50048 25422
L49800 24221
" />
<path d="M50099 25371
L49851 24174
" />
<path d="M50048 27394
L49800 26190
" />
<path d="M50099 27343
L49851 26142
" />
<path d="M51701 27552
L51701 27402
" />
<path d="M51701 25953
L51701 26103
" />
<path d="M51701 26103
L51701 27402
" />
<path d="M51548 27772
L51548 27402
" />
<path d="M51548 27402
L51548 26103
" />
<path d="M51548 26103
L51548 25434
" />
<path d="M51548 23761
L51548 24131
" />
<path d="M51548 24131
L51548 25434
" />
<path d="M51701 23981
L51701 24131
" />
<path d="M51701 25583
L51701 25434
" />
<path d="M51701 25434
L51701 24131
" />
<path d="M49808.4 27372.4 A234.409 234.409 0.0 0 0 50174 27316.1" />
<path d="M49803.3 26150.8 A812.227 812.227 0.0 0 0 49831.5 27394.9" />
<path d="M50162.8 27331.8 A961.42 961.42 0.0 0 0 50178 26154.7" />
<path d="M50191.3 26172.2 A267.485 267.485 0.0 0 0 49811.8 26154.7" />
<path d="M49808.4 25403.9 A234.409 234.409 0.0 0 0 50174 25347.6" />
<path d="M49807.2 24183 A809.158 809.158 0.0 0 0 49831.5 25422.4" />
<path d="M50159 25360.4 A959.056 959.056 0.0 0 0 50178 24186.2" />
<path d="M50195.3 24203.7 A270.395 270.395 0.0 0 0 49811.8 24182.3" />
<path d="M46488 27796
L46488 26418
" />
<path d="M46490.4 26409.6 A976.378 976.378 0.0 0 0 44823.6 27100" />
<path d="M44823.6 27100 A976.378 976.378 0.0 0 0 46490.4 27790.4" />
<path d="M44008 29514
L44008 28885
" />
<path d="M44008 28885
L42591 28885
" />
<path d="M42591 28885
L42591 29514
" />
<path d="M42591 29514
L44008 29514
" />
<path d="M44800 29200
L44008 29200
" />
<path d="M41800 29200
L42591 29200
" />
<path d="M44000 22400
L44000 23191
" />
<path d="M44000 25400
L44000 24608
" />
<path d="M43685 23191
L43685 24608
" />
<path d="M44314 23191
L43685 23191
" />
<path d="M44314 24608
L44314 23191
" />
<path d="M43685 24608
L44314 24608
" />
<path d="M49200 29200
L48408 29200
" />
<path d="M46200 29200
L46991 29200
" />
<path d="M48408 28885
L46991 28885
" />
<path d="M48408 29514
L48408 28885
" />
<path d="M46991 29514
L48408 29514
" />
<path d="M46991 28885
L46991 29514
" />
<path d="M47085 24608
L47714 24608
" />
<path d="M47714 24608
L47714 23191
" />
<path d="M47714 23191
L47085 23191
" />
<path d="M47085 23191
L47085 24608
" />
<path d="M47400 25400
L47400 24608
" />
<path d="M47400 22400
L47400 23191
" />
<circle cx="38800" cy="30600" r="1909.55" /> 
<circle cx="38800" cy="30600" r="787.402" /> 
<circle cx="52800" cy="30600" r="787.402" /> 
<circle cx="52800" cy="30600" r="1909.55" /> 
<g >
</g>
<g >
</g>
<g >
</g>
<g >
</g>
<g >
</g>
<g >
</g>
<g >
</g>
<g >
</g>
<g >
</g>
<g >
</g>
<g >
</g>
</g>
<g style="fill:#848484; fill-opacity:0.0; 
stroke:#848484; stroke-width:39.3701; stroke-opacity:1; 
stroke-linecap:round; stroke-linejoin:round;">
</g>
<g style="fill:#848484; fill-opacity:0.0; 
stroke:#848484; stroke-width:59.0551; stroke-opacity:1; 
stroke-linecap:round; stroke-linejoin:round;">
<g transform="rotate(-90 44876.4 27006.3)">
<text x="44876.4" y="27203.1"
textLength="1127.67" font-size="524.934" lengthAdjust="spacingAndGlyphs"
text-anchor="middle" opacity="0">1uF</text>
</g>
<path d="M45054 27240
L45054 27465
" />
<path d="M45054 27353
L44660 27353
L44717 27390
L44754 27428
L44773 27465
" />
<path d="M44792 26903
L45054 26903
" />
<path d="M44792 27071
L44998 27071
L45035 27053
L45054 27015
L45054 26959
L45035 26921
L45016 26903
" />
<path d="M44848 26584
L44848 26715
" />
<path d="M45054 26715
L44660 26715
L44660 26528
" />
<g transform="rotate(-90 43400 27006.3)">
<text x="43400" y="27203.1"
textLength="845.426" font-size="524.934" lengthAdjust="spacingAndGlyphs"
text-anchor="middle" opacity="0">C1</text>
</g>
<path d="M43540 27071
L43559 27090
L43578 27146
L43578 27184
L43559 27240
L43521 27278
L43484 27296
L43409 27315
L43353 27315
L43278 27296
L43240 27278
L43203 27240
L43184 27184
L43184 27146
L43203 27090
L43221 27071
" />
<path d="M43578 26696
L43578 26921
" />
<path d="M43578 26809
L43184 26809
L43240 26846
L43278 26884
L43296 26921
" />
<g transform="rotate(-90 49476.4 27006.3)">
<text x="49476.4" y="27203.1"
textLength="1520.34" font-size="524.934" lengthAdjust="spacingAndGlyphs"
text-anchor="middle" opacity="0">20uF</text>
</g>
<path d="M49298 27653
L49279 27634
L49260 27596
L49260 27503
L49279 27465
L49298 27446
L49335 27428
L49373 27428
L49429 27446
L49654 27671
L49654 27428
" />
<path d="M49260 27184
L49260 27146
L49279 27109
L49298 27090
L49335 27071
L49410 27053
L49504 27053
L49579 27071
L49616 27090
L49635 27109
L49654 27146
L49654 27184
L49635 27221
L49616 27240
L49579 27259
L49504 27278
L49410 27278
L49335 27259
L49298 27240
L49279 27221
L49260 27184
" />
<path d="M49392 26715
L49654 26715
" />
<path d="M49392 26884
L49598 26884
L49635 26865
L49654 26828
L49654 26771
L49635 26734
L49616 26715
" />
<path d="M49448 26397
L49448 26528
" />
<path d="M49654 26528
L49260 26528
L49260 26340
" />
<g transform="rotate(-90 48000 27006.3)">
<text x="48000" y="27203.1"
textLength="845.426" font-size="524.934" lengthAdjust="spacingAndGlyphs"
text-anchor="middle" opacity="0">C2</text>
</g>
<path d="M48140 27071
L48159 27090
L48178 27146
L48178 27184
L48159 27240
L48121 27278
L48084 27296
L48009 27315
L47953 27315
L47878 27296
L47840 27278
L47803 27240
L47784 27184
L47784 27146
L47803 27090
L47821 27071
" />
<path d="M47821 26921
L47803 26903
L47784 26865
L47784 26771
L47803 26734
L47821 26715
L47859 26696
L47896 26696
L47953 26715
L48178 26940
L48178 26696
" />
<g transform="rotate(-90 36548.8 25694.5)">
<text x="36548.8" y="25891.3"
textLength="1557.84" font-size="524.934" lengthAdjust="spacingAndGlyphs"
text-anchor="middle" opacity="0">Input</text>
</g>
<path d="M36726 26341
L36333 26341
" />
<path d="M36464 26153
L36726 26153
" />
<path d="M36501 26153
L36483 26135
L36464 26097
L36464 26041
L36483 26003
L36520 25985
L36726 25985
" />
<path d="M36464 25797
L36858 25797
" />
<path d="M36483 25797
L36464 25760
L36464 25685
L36483 25647
L36501 25628
L36539 25610
L36651 25610
L36689 25628
L36708 25647
L36726 25685
L36726 25760
L36708 25797
" />
<path d="M36464 25272
L36726 25272
" />
<path d="M36464 25441
L36670 25441
L36708 25422
L36726 25385
L36726 25328
L36708 25291
L36689 25272
" />
<path d="M36464 25141
L36464 24991
" />
<path d="M36333 25085
L36670 25085
L36708 25066
L36726 25028
L36726 24991
" />
<g transform="rotate(-90 40387.4 25584.3)">
<text x="40387.4" y="25781.1"
textLength="751.687" font-size="524.934" lengthAdjust="spacingAndGlyphs"
text-anchor="middle" opacity="0">J1</text>
</g>
<path d="M40171 25715
L40453 25715
L40509 25734
L40546 25771
L40565 25827
L40565 25865
" />
<path d="M40565 25321
L40565 25546
" />
<path d="M40565 25434
L40171 25434
L40228 25471
L40265 25509
L40284 25546
" />
<g transform="rotate(-90 54842.9 25662.6)">
<text x="54842.9" y="25859.4"
textLength="2007.78" font-size="524.934" lengthAdjust="spacingAndGlyphs"
text-anchor="middle" opacity="0">Output</text>
</g>
<path d="M54627 26459
L54627 26384
L54646 26346
L54683 26309
L54758 26290
L54889 26290
L54964 26309
L55002 26346
L55021 26384
L55021 26459
L55002 26496
L54964 26534
L54889 26553
L54758 26553
L54683 26534
L54646 26496
L54627 26459
" />
<path d="M54758 25953
L55021 25953
" />
<path d="M54758 26121
L54964 26121
L55002 26103
L55021 26065
L55021 26009
L55002 25971
L54983 25953
" />
<path d="M54758 25821
L54758 25671
" />
<path d="M54627 25765
L54964 25765
L55002 25746
L55021 25709
L55021 25671
" />
<path d="M54758 25540
L55152 25540
" />
<path d="M54777 25540
L54758 25503
L54758 25428
L54777 25390
L54796 25372
L54833 25353
L54946 25353
L54983 25372
L55002 25390
L55021 25428
L55021 25503
L55002 25540
" />
<path d="M54758 25015
L55021 25015
" />
<path d="M54758 25184
L54964 25184
L55002 25165
L55021 25128
L55021 25072
L55002 25034
L54983 25015
" />
<path d="M54758 24884
L54758 24734
" />
<path d="M54627 24828
L54964 24828
L55002 24809
L55021 24772
L55021 24734
" />
<g transform="rotate(-90 51012.6 25772.8)">
<text x="51012.6" y="25969.7"
textLength="751.687" font-size="524.934" lengthAdjust="spacingAndGlyphs"
text-anchor="middle" opacity="0">J2</text>
</g>
<path d="M50797 25904
L51078 25904
L51134 25922
L51171 25960
L51190 26016
L51190 26054
" />
<path d="M50834 25735
L50815 25716
L50797 25679
L50797 25585
L50815 25547
L50834 25529
L50871 25510
L50909 25510
L50965 25529
L51190 25754
L51190 25510
" />
<g transform="rotate(-90 46898.4 27100)">
<text x="46898.4" y="27296.9"
textLength="1989.03" font-size="524.934" lengthAdjust="spacingAndGlyphs"
text-anchor="middle" opacity="0">BC547</text>
</g>
<path d="M46870 27831
L46889 27774
L46907 27756
L46945 27737
L47001 27737
L47039 27756
L47057 27774
L47076 27812
L47076 27962
L46682 27962
L46682 27831
L46701 27793
L46720 27774
L46757 27756
L46795 27756
L46832 27774
L46851 27793
L46870 27831
L46870 27962
" />
<path d="M47039 27343
L47057 27362
L47076 27418
L47076 27456
L47057 27512
L47020 27549
L46982 27568
L46907 27587
L46851 27587
L46776 27568
L46739 27549
L46701 27512
L46682 27456
L46682 27418
L46701 27362
L46720 27343
" />
<path d="M46682 26987
L46682 27174
L46870 27193
L46851 27174
L46832 27137
L46832 27043
L46851 27006
L46870 26987
L46907 26968
L47001 26968
L47039 26987
L47057 27006
L47076 27043
L47076 27137
L47057 27174
L47039 27193
" />
<path d="M46814 26631
L47076 26631
" />
<path d="M46664 26725
L46945 26818
L46945 26575
" />
<path d="M46682 26462
L46682 26200
L47076 26368
" />
<g transform="rotate(-90 45800 27100)">
<text x="45800" y="27296.9"
textLength="864.173" font-size="524.934" lengthAdjust="spacingAndGlyphs"
text-anchor="middle" opacity="0">Q1</text>
</g>
<path d="M46015 27137
L45996 27174
L45959 27212
L45903 27268
L45884 27306
L45884 27343
" />
<path d="M45978 27324
L45959 27362
L45921 27399
L45846 27418
L45715 27418
L45640 27399
L45603 27362
L45584 27324
L45584 27249
L45603 27212
L45640 27174
L45715 27156
L45846 27156
L45921 27174
L45959 27212
L45978 27249
L45978 27324
" />
<path d="M45978 26781
L45978 27006
" />
<path d="M45978 26893
L45584 26893
L45640 26931
L45678 26968
L45696 27006
" />
<text x="43300" y="28640.9"
textLength="1332.86" font-size="524.934" lengthAdjust="spacingAndGlyphs"
text-anchor="middle" opacity="0">4.7k</text>
<path d="M42934 28359
L42934 28622
" />
<path d="M42840 28209
L42746 28490
L42990 28490
" />
<path d="M43140 28584
L43159 28603
L43140 28622
L43121 28603
L43140 28584
L43140 28622
" />
<path d="M43290 28228
L43553 28228
L43384 28622
" />
<path d="M43703 28622
L43703 28228
" />
<path d="M43740 28472
L43853 28622
" />
<path d="M43853 28359
L43703 28509
" />
</g>
<g style="fill:#848484; fill-opacity:0.0; 
stroke:#848484; stroke-width:42.5197; stroke-opacity:1; 
stroke-linecap:round; stroke-linejoin:round;">
<text x="43300" y="29341.7"
textLength="630.202" font-size="377.953" lengthAdjust="spacingAndGlyphs"
text-anchor="middle" opacity="0">R1</text>
<path d="M43252 29328
L43158 29193
" />
<path d="M43090 29328
L43090 29044
L43198 29044
L43225 29058
L43239 29071
L43252 29098
L43252 29139
L43239 29166
L43225 29179
L43198 29193
L43090 29193
" />
<path d="M43522 29328
L43360 29328
" />
<path d="M43441 29328
L43441 29044
L43414 29085
L43387 29112
L43360 29125
" />
</g>
<g style="fill:#848484; fill-opacity:0.0; 
stroke:#848484; stroke-width:59.0551; stroke-opacity:1; 
stroke-linecap:round; stroke-linejoin:round;">
<g transform="rotate(-90 44755.9 23900)">
<text x="44755.9" y="24096.9"
textLength="748.939" font-size="524.934" lengthAdjust="spacingAndGlyphs"
text-anchor="middle" opacity="0">1k</text>
</g>
<path d="M44934 23946
L44934 24171
" />
<path d="M44934 24059
L44540 24059
L44596 24096
L44634 24134
L44652 24171
" />
<path d="M44934 23778
L44540 23778
" />
<path d="M44784 23740
L44934 23628
" />
<path d="M44671 23628
L44821 23778
" />
</g>
<g style="fill:#848484; fill-opacity:0.0; 
stroke:#848484; stroke-width:42.5197; stroke-opacity:1; 
stroke-linecap:round; stroke-linejoin:round;">
<g transform="rotate(-90 44000 23900)">
<text x="44000" y="24041.7"
textLength="630.202" font-size="377.953" lengthAdjust="spacingAndGlyphs"
text-anchor="middle" opacity="0">R2</text>
</g>
<path d="M44128 23947
L43993 24041
" />
<path d="M44128 24109
L43844 24109
L43844 24001
L43858 23974
L43871 23960
L43898 23947
L43939 23947
L43966 23960
L43979 23974
L43993 24001
L43993 24109
" />
<path d="M43871 23839
L43858 23825
L43844 23798
L43844 23731
L43858 23704
L43871 23690
L43898 23677
L43925 23677
L43966 23690
L44128 23852
L44128 23677
" />
</g>
<g style="fill:#848484; fill-opacity:0.0; 
stroke:#848484; stroke-width:59.0551; stroke-opacity:1; 
stroke-linecap:round; stroke-linejoin:round;">
<text x="47700" y="28796.9"
textLength="1311.37" font-size="524.934" lengthAdjust="spacingAndGlyphs"
text-anchor="middle" opacity="0">4.7k</text>
<path d="M47334 28515
L47334 28778
" />
<path d="M47240 28365
L47146 28646
L47390 28646
" />
<path d="M47540 28740
L47559 28759
L47540 28778
L47521 28759
L47540 28740
L47540 28778
" />
<path d="M47690 28384
L47953 28384
L47784 28778
" />
<path d="M48103 28778
L48103 28384
" />
<path d="M48140 28628
L48253 28778
" />
<path d="M48253 28515
L48103 28665
" />
</g>
<g style="fill:#848484; fill-opacity:0.0; 
stroke:#848484; stroke-width:42.5197; stroke-opacity:1; 
stroke-linecap:round; stroke-linejoin:round;">
<text x="47700" y="29341.7"
textLength="630.202" font-size="377.953" lengthAdjust="spacingAndGlyphs"
text-anchor="middle" opacity="0">R3</text>
<path d="M47652 29328
L47558 29193
" />
<path d="M47490 29328
L47490 29044
L47598 29044
L47625 29058
L47639 29071
L47652 29098
L47652 29139
L47639 29166
L47625 29179
L47598 29193
L47490 29193
" />
<path d="M47747 29044
L47922 29044
L47828 29152
L47868 29152
L47895 29166
L47909 29179
L47922 29206
L47922 29274
L47909 29301
L47895 29314
L47868 29328
L47787 29328
L47760 29314
L47747 29301
" />
</g>
<g style="fill:#848484; fill-opacity:0.0; 
stroke:#848484; stroke-width:59.0551; stroke-opacity:1; 
stroke-linecap:round; stroke-linejoin:round;">
<g transform="rotate(-90 48155.9 23900)">
<text x="48155.9" y="24096.9"
textLength="748.939" font-size="524.934" lengthAdjust="spacingAndGlyphs"
text-anchor="middle" opacity="0">1k</text>
</g>
<path d="M48334 23946
L48334 24171
" />
<path d="M48334 24059
L47940 24059
L47996 24096
L48034 24134
L48052 24171
" />
<path d="M48334 23778
L47940 23778
" />
<path d="M48184 23740
L48334 23628
" />
<path d="M48071 23628
L48221 23778
" />
</g>
<g style="fill:#848484; fill-opacity:0.0; 
stroke:#848484; stroke-width:42.5197; stroke-opacity:1; 
stroke-linecap:round; stroke-linejoin:round;">
<g transform="rotate(-90 47400 23900)">
<text x="47400" y="24041.7"
textLength="630.202" font-size="377.953" lengthAdjust="spacingAndGlyphs"
text-anchor="middle" opacity="0">R4</text>
</g>
<path d="M47528 23947
L47393 24041
" />
<path d="M47528 24109
L47244 24109
L47244 24001
L47258 23974
L47271 23960
L47298 23947
L47339 23947
L47366 23960
L47379 23974
L47393 24001
L47393 24109
" />
<path d="M47339 23704
L47528 23704
" />
<path d="M47231 23771
L47433 23839
L47433 23663
" />
</g>
<g style="fill:#848484; fill-opacity:0.0; 
stroke:#848484; stroke-width:59.0551; stroke-opacity:1; 
stroke-linecap:round; stroke-linejoin:round;">
<text x="38701.6" y="33355.9"
textLength="3992.28" font-size="524.934" lengthAdjust="spacingAndGlyphs"
text-anchor="middle" opacity="0">Power_Con_+</text>
<path d="M36826 33337
L36826 32943
L36976 32943
L37014 32962
L37033 32980
L37051 33018
L37051 33074
L37033 33112
L37014 33130
L36976 33149
L36826 33149
" />
<path d="M37276 33337
L37239 33318
L37220 33299
L37201 33262
L37201 33149
L37220 33112
L37239 33093
L37276 33074
L37332 33074
L37370 33093
L37389 33112
L37407 33149
L37407 33262
L37389 33299
L37370 33318
L37332 33337
L37276 33337
" />
<path d="M37539 33074
L37614 33337
L37689 33149
L37764 33337
L37839 33074
" />
<path d="M38139 33318
L38101 33337
L38026 33337
L37989 33318
L37970 33280
L37970 33130
L37989 33093
L38026 33074
L38101 33074
L38139 33093
L38157 33130
L38157 33168
L37970 33205
" />
<path d="M38326 33337
L38326 33074
" />
<path d="M38326 33149
L38345 33112
L38364 33093
L38401 33074
L38439 33074
" />
<path d="M38476 33374
L38776 33374
" />
<path d="M39095 33299
L39076 33318
L39020 33337
L38982 33337
L38926 33318
L38889 33280
L38870 33243
L38851 33168
L38851 33112
L38870 33037
L38889 32999
L38926 32962
L38982 32943
L39020 32943
L39076 32962
L39095 32980
" />
<path d="M39320 33337
L39282 33318
L39264 33299
L39245 33262
L39245 33149
L39264 33112
L39282 33093
L39320 33074
L39376 33074
L39413 33093
L39432 33112
L39451 33149
L39451 33262
L39432 33299
L39413 33318
L39376 33337
L39320 33337
" />
<path d="M39620 33074
L39620 33337
" />
<path d="M39620 33112
L39638 33093
L39676 33074
L39732 33074
L39770 33093
L39788 33130
L39788 33337
" />
<path d="M39882 33374
L40182 33374
" />
<path d="M40276 33187
L40576 33187
" />
<path d="M40426 33337
L40426 33037
" />
</g>
<g style="fill:#848484; fill-opacity:0.0; 
stroke:#848484; stroke-width:47.2441; stroke-opacity:1; 
stroke-linecap:round; stroke-linejoin:round;">
<text x="38800" y="30757.5"
textLength="616.704" font-size="419.947" lengthAdjust="spacingAndGlyphs"
text-anchor="middle" opacity="0">J3</text>
<path d="M38695 30427
L38695 30652
L38680 30697
L38650 30727
L38605 30742
L38575 30742
" />
<path d="M38814 30427
L39009 30427
L38904 30547
L38949 30547
L38979 30562
L38994 30577
L39009 30607
L39009 30682
L38994 30712
L38979 30727
L38949 30742
L38859 30742
L38829 30727
L38814 30712
" />
</g>
<g style="fill:#848484; fill-opacity:0.0; 
stroke:#848484; stroke-width:59.0551; stroke-opacity:1; 
stroke-linecap:round; stroke-linejoin:round;">
<text x="52701.6" y="33355.9"
textLength="3998.43" font-size="524.934" lengthAdjust="spacingAndGlyphs"
text-anchor="middle" opacity="0">Power_Con_-</text>
<path d="M50826 33337
L50826 32943
L50976 32943
L51014 32962
L51033 32980
L51051 33018
L51051 33074
L51033 33112
L51014 33130
L50976 33149
L50826 33149
" />
<path d="M51276 33337
L51239 33318
L51220 33299
L51201 33262
L51201 33149
L51220 33112
L51239 33093
L51276 33074
L51332 33074
L51370 33093
L51389 33112
L51407 33149
L51407 33262
L51389 33299
L51370 33318
L51332 33337
L51276 33337
" />
<path d="M51539 33074
L51614 33337
L51689 33149
L51764 33337
L51839 33074
" />
<path d="M52139 33318
L52101 33337
L52026 33337
L51989 33318
L51970 33280
L51970 33130
L51989 33093
L52026 33074
L52101 33074
L52139 33093
L52157 33130
L52157 33168
L51970 33205
" />
<path d="M52326 33337
L52326 33074
" />
<path d="M52326 33149
L52345 33112
L52364 33093
L52401 33074
L52439 33074
" />
<path d="M52476 33374
L52776 33374
" />
<path d="M53095 33299
L53076 33318
L53020 33337
L52982 33337
L52926 33318
L52889 33280
L52870 33243
L52851 33168
L52851 33112
L52870 33037
L52889 32999
L52926 32962
L52982 32943
L53020 32943
L53076 32962
L53095 32980
" />
<path d="M53320 33337
L53282 33318
L53264 33299
L53245 33262
L53245 33149
L53264 33112
L53282 33093
L53320 33074
L53376 33074
L53413 33093
L53432 33112
L53451 33149
L53451 33262
L53432 33299
L53413 33318
L53376 33337
L53320 33337
" />
<path d="M53620 33074
L53620 33337
" />
<path d="M53620 33112
L53638 33093
L53676 33074
L53732 33074
L53770 33093
L53788 33130
L53788 33337
" />
<path d="M53882 33374
L54182 33374
" />
<path d="M54276 33187
L54576 33187
" />
</g>
<g style="fill:#848484; fill-opacity:0.0; 
stroke:#848484; stroke-width:47.2441; stroke-opacity:1; 
stroke-linecap:round; stroke-linejoin:round;">
<text x="52800" y="30757.5"
textLength="616.704" font-size="419.947" lengthAdjust="spacingAndGlyphs"
text-anchor="middle" opacity="0">J4</text>
<path d="M52695 30427
L52695 30652
L52680 30697
L52650 30727
L52605 30742
L52575 30742
" />
<path d="M52979 30532
L52979 30742
" />
<path d="M52904 30412
L52829 30637
L53024 30637
" />
<g >
</g>
</g>
<g style="fill:#000000; fill-opacity:0.0; 
stroke:#000000; stroke-width:47.2441; stroke-opacity:1; 
stroke-linecap:round; stroke-linejoin:round;">
</g>
<g style="fill:#C2C200; fill-opacity:0.0; 
stroke:#C2C200; stroke-width:47.2441; stroke-opacity:1; 
stroke-linecap:round; stroke-linejoin:round;">
</g>
<g style="fill:#C2C200; fill-opacity:0.0; 
stroke:#C2C200; stroke-width:19.685; stroke-opacity:1; 
stroke-linecap:round; stroke-linejoin:round;">
<path d="M54200 33200
L37200 33200
" />
<path d="M36000 32000
L36000 31600
" />
<path d="M36000 23000
L36000 31600
" />
<path d="M36000 32000 A1200 1200 0.0 0 0 37200 33200" />
<path d="M55400 32000
L55400 29400
" />
<path d="M54200 33200 A1200 1200 0.0 0 0 55400 32000" />
<path d="M54200 21800
L37200 21800
" />
<path d="M55400 29400
L55400 23000
" />
<path d="M55400 23000 A1200 1200 0.0 0 0 54200 21800" />
<path d="M37200 21800 A1200 1200 0.0 0 0 36000 23000" />
<g >
</g>
<g >
</g>
<g >
</g>
<g >
</g>
<g >
</g>
<g >
</g>
<g >
</g>
<g >
</g>
<g >
</g>
<g >
</g>
<g >
</g>
<g >
</g>
</g> 
</svg>
